<?xml version="1.0" encoding="utf-8" ?><svg xmlns="http://www.w3.org/2000/svg" xmlns:xlink="http://www.w3.org/1999/xlink" width="591" height="394" viewBox="0 0 591 394"><path fill="#C45539" transform="scale(0.473558 0.473558)" d="M629.571 275.735L629.449 217.359C629.41 203.902 628.977 189.826 630.167 176.382C634.143 131.447 669.455 82.8123 717.906 82.279C739.082 82.0459 759.2 92.9328 773.663 107.734C788.871 123.012 797.669 142.45 802.391 163.305C806.225 180.239 805.731 197.634 805.734 214.909L805.726 257.501L805.822 409.871C808.16 410.3 810.481 410.693 812.791 411.255C816.976 405.06 819.358 402.487 825.007 397.606C842.585 382.418 856.069 393.459 874.938 398.624C878.235 399.526 891.793 401.113 893.716 402.307C893.999 404.518 892.663 405.815 891.259 407.503L895.44 409.24C900.909 411.487 900.419 415.021 908.018 419.073C903.233 422.747 898.546 424.457 893.241 427.3C898.983 428.173 903.859 428.853 909.236 431.311C908.08 433.871 906.842 436.511 905.749 439.087C921.078 440.465 938.579 440.903 954.109 441.439C954.276 447.062 954.372 452.687 954.397 458.313L945.587 463.022L945.541 505.145C955.244 512.896 962.653 519.922 963.884 533.182C967.385 570.875 927.778 605.176 932.712 641.644C944.646 636.7 956.437 633.556 962.304 648.748C964.3 653.931 964.171 659.693 961.945 664.782C956.293 677.524 939.725 681.836 927.835 675.729C917.976 670.665 911.888 662.557 908.273 652.317C891.733 612.941 945.785 555.252 909.835 526.832C880.198 542.991 850.385 558.826 820.401 574.332C829.201 586.227 831.187 603.96 828.946 618.298C824.492 646.789 808.395 671.842 802.037 699.788C800.305 707.399 800.082 713.865 799.825 721.61C812.468 717.369 822.341 718.915 826.817 733.022C828.696 738.846 828.147 745.182 825.296 750.596C818.74 762.905 801.433 768.146 789.379 760.903C779.178 754.773 774.204 742.946 771.377 731.938C765.906 710.629 768.804 688.543 771.611 667.08C772.114 663.232 772.748 659.35 772.873 655.448C769.912 654.994 765.717 654.478 762.899 653.79C757.771 635.776 754.133 601.453 756.024 582.731C747.221 581.488 738.403 580.357 729.571 579.339C731.733 599.63 729.208 627.277 729.309 648.071C729.366 659.57 731.036 670.131 731.319 681.046C728.991 682.775 726.898 684.392 724.391 685.863C719.936 685.691 717.526 685.571 713.295 684.099C710.713 674.062 709.161 663.788 708.664 653.436C704.776 653.309 698.483 652.975 694.756 653.531C681.167 655.558 678.231 664.981 663.492 666.428C648.926 667.858 641.355 654.127 631.143 652.023C615.882 648.879 609.901 662.272 594.83 647.101C592.54 659.848 590.468 679.737 571.923 666.999C572.234 655.927 574.386 645.311 574.712 634.156C569.419 634.725 564.142 635.416 563.729 627.973C563.217 618.732 567.347 609.657 568.162 600.511C569.829 587.034 569.736 575.046 569.521 561.611L550.382 559.421C551.196 571.324 552.525 585.466 552.103 597.494C551.506 614.505 554.504 640.035 531.964 641.881C521.403 642.747 470.498 631.56 465.421 633.799C463.191 636.921 460.444 641.377 456.319 641.638C447.004 642.227 444.307 637.234 442.233 629.78C431.341 628.591 412.217 628.202 404.413 619.643C397.859 612.454 402.905 601.96 408.182 595.542C420.454 598.36 429.684 599.102 441.632 600.991C439.489 584.511 436.018 563.272 435.529 547.156L355.325 538.75C342.374 537.386 324.254 535.927 311.728 533.77L311.331 534.271C309.524 536.513 304.454 540.994 301.982 542.864C292.135 550.176 288.769 561.549 290.159 573.636C294.197 608.734 322.632 650.277 297.287 683.542C283.294 701.909 249.741 700.436 248.158 673.184C247.572 663.088 254.567 654.823 264.725 653.531C269.682 652.982 275.014 656.082 279.25 658.502C277.877 644.767 276.892 641.75 271.895 629.263C260.576 600.976 227.209 566.205 251.465 536.446C254.403 532.871 257.817 529.716 261.612 527.069C261.235 514.386 260.854 501.056 260.9 488.381C253.681 487.846 245.459 487.423 238.37 486.413L237.676 470.596L278.651 458.306C289.068 455.231 303.705 452.372 311.789 445.267C307.87 441.3 304.933 437.742 300.632 433.555C312.061 426.585 314.159 427.93 321.149 415.559C324.196 417.053 332.356 423.556 334.971 422.949C336.854 422.33 338.83 422.251 340.782 421.963C350.255 420.568 359.588 418.178 368.873 415.893C366.761 406.839 364.994 394.391 363.427 384.989C372.236 382.792 382.656 381.706 391.746 380.543C403.229 379.007 414.729 377.603 426.244 376.334L427.905 382.304C431.736 382.226 435.995 381.823 439.848 381.544C442.517 391.714 443.919 406.576 447.55 415.618C449.899 415.797 457.017 416.703 458.454 415.8C454.675 407.328 457.377 393.373 469.729 396.947C473.772 398.336 475.015 399.741 477.894 402.92C478.621 407.46 479.912 405.515 481.473 409.168C481.948 410.278 481.446 409.838 482.52 410.746C486.966 410.971 491.366 410.802 495.815 410.697L496.106 402.627C496.551 399.879 496.616 399.239 497.776 396.658C497.579 404.054 497.434 404.979 503.685 409.177C504.753 412.45 503.202 414.872 501.683 417.931C518.339 419.011 549.636 421.167 567.564 421.213C567.944 420.893 568.325 420.572 568.705 420.252C568.886 415.988 572.398 413.307 575.555 411.101C574.654 408.68 573.769 406.253 572.903 403.82C568.553 391.834 564.427 377.44 561.349 364.933C567.211 375.774 576.879 397.18 580.8 409.418C591.99 404.37 597.063 396.806 601.381 385.879C613.439 355.371 582.414 326.255 600.843 296.055C607.839 284.591 617.095 279.379 629.571 275.735Z"/><path fill="#FEFEFE" transform="scale(0.473558 0.473558)" d="M571.979 437.082C573.984 439.274 578.15 441.772 581.157 441.039L581.715 439.748C579.2 438.132 572.531 435.621 572.591 432.858C578.644 433.961 578.874 440.816 586.667 435.266C587.747 436.446 587.257 436.091 589.351 436.212C591.438 440.624 591.225 442.88 591.138 447.799C591.08 450.3 590.488 449.512 591.24 452.337L592.654 454.645L594.093 454.095C594.057 452.818 593.776 450.774 593.638 449.438L593.083 448.556C592.96 446.169 592.758 445.04 593.996 442.998L595.435 442.347L595.386 441.38L593.476 440.667L593.256 439.741C594.551 437.865 597.372 436.411 599.428 435.139C606.203 435.234 615.121 436.154 622.167 436.561C613.376 458.163 638.432 447.041 647.881 445.588C651.284 445.065 658.294 445.401 661.997 445.439C642.203 456.061 621.901 467.219 601.719 477.001C590.558 481.536 579.44 485.056 568.453 490.063C550.799 498.11 547.687 513.34 546.878 531.233C545.788 555.354 549.133 579.313 549.148 603.449C548.953 615.009 549.907 632.177 537.456 638.165C529.529 641.978 524.427 633.639 522.077 627.699C526.777 627.969 531.475 628.274 536.171 628.614C536.428 622.652 537.582 612.611 529.705 611.557C502.237 607.88 474.223 605.266 446.667 602.031C460.358 565.82 442.433 532.879 450.802 497.38C452.074 491.986 457.367 482.928 462.357 480.541C479.808 472.193 502.554 469.186 520.865 462.458C538.536 455.965 553.808 447.112 570.05 438.388L571.11 438.464L571.979 437.082Z"/><path fill="#CC6445" transform="scale(0.473558 0.473558)" d="M571.979 437.082C573.984 439.274 578.15 441.772 581.157 441.039L581.715 439.748C579.2 438.132 572.531 435.621 572.591 432.858C578.644 433.961 578.874 440.816 586.667 435.266C587.747 436.446 587.257 436.091 589.351 436.212C591.438 440.624 591.225 442.88 591.138 447.799C591.08 450.3 590.488 449.512 591.24 452.337C588.176 447.532 571.118 448.022 564.755 447.313C573.19 446.051 581.339 448.147 586.469 447.231L586.815 446.546C582.564 442.327 576.872 443.823 570.651 438.871L570.05 438.388L571.11 438.464L571.979 437.082Z"/><path fill="#FEFEFE" transform="scale(0.473558 0.473558)" d="M591.138 447.799C588.955 445.259 586.425 442.846 586.202 439.51C587.113 437.312 587.242 437.71 589.351 436.212C591.438 440.624 591.225 442.88 591.138 447.799Z"/><path fill="#CC6445" transform="scale(0.473558 0.473558)" d="M594.093 454.095L594.942 455.266C597.422 456.614 599.321 455.987 602.078 456.716L602.525 457.487C599.128 458.137 558.56 454.746 555.308 453.141C558.34 451.07 588.786 456.998 592.654 454.645L594.093 454.095Z"/><path fill="#CC6445" transform="scale(0.473558 0.473558)" d="M593.083 448.556C604.287 449.341 621.231 450.305 631.928 452.78C619.005 453.214 606.346 451.831 593.638 449.438L593.083 448.556Z"/><path fill="#DC987F" transform="scale(0.473558 0.473558)" d="M595.386 441.38C597.037 441.529 600.088 441.707 601.598 442.008L601.951 442.583L602.826 442.542C598.283 443.535 597.596 442.599 593.996 442.998L595.435 442.347L595.386 441.38Z"/><path fill="#CC6445" transform="scale(0.473558 0.473558)" d="M460.215 527.45C465.311 526.413 532.347 533.546 535.806 535.522C531.353 536.072 464.308 529.324 460.215 527.45Z"/><path fill="#CC6445" transform="scale(0.473558 0.473558)" d="M509.142 470.805C521.636 471.691 534.789 473.262 547.234 474.69C553.085 475.361 575.952 476.662 579.118 479.478C578.988 479.483 578.857 479.488 578.727 479.492C556.129 477.891 532.965 474.842 510.449 472.024C509.914 471.525 509.478 471.119 509.142 470.805Z"/><path fill="#CC6445" transform="scale(0.473558 0.473558)" d="M542.507 458.611C558.002 458.709 574.103 461.23 589.572 462.645C595.361 463.175 608.928 463.224 613.327 465.468C607.203 466.032 545.453 461.059 542.507 458.611Z"/><path fill="#CC6445" transform="scale(0.473558 0.473558)" d="M472.403 482.97C476.271 482.629 493.129 484.532 497.239 485.318C508.427 487.456 540.592 487.727 548.833 492.262C538.055 490.982 478.091 485.709 472.403 482.97Z"/><path fill="#CC6445" transform="scale(0.473558 0.473558)" d="M481.882 559.175C488.74 559.232 531.299 562.479 535.827 564.746C524.686 565.868 496.3 561.596 483.624 560.443C482.94 559.945 482.359 559.522 481.882 559.175Z"/><path fill="#CC6445" transform="scale(0.473558 0.473558)" d="M488.35 498.854C502.979 500.25 522.134 501.582 536.985 504.464C537.462 504.959 537.864 505.376 538.19 505.714C523.481 505.403 506.25 501.619 491.422 500.416C489.838 500.287 489.208 500.08 488.35 498.854Z"/><path fill="#CC6445" transform="scale(0.473558 0.473558)" d="M458.532 511.625C464.463 510.975 503.683 515.188 509.199 517.236C503.065 517.848 463.632 513.97 458.532 511.625Z"/><path fill="#CC6445" transform="scale(0.473558 0.473558)" d="M461.852 571.972C466.518 571.387 501.076 575.108 505.423 576.977C499.242 577.966 468.044 574.234 461.852 571.972Z"/><path fill="#CC6445" transform="scale(0.473558 0.473558)" d="M495.627 545.785C502.355 544.969 527.228 547.971 534.052 549.742C530.052 551.435 499.749 547.735 495.627 545.785Z"/><path fill="#D78264" transform="scale(0.473558 0.473558)" d="M516.037 479.284C524.822 479.191 550.902 482.755 560.086 484.309C552.947 485.27 522.531 482.211 516.037 479.284Z"/><path fill="#CC6445" transform="scale(0.473558 0.473558)" d="M558.315 469.037C566.57 468.107 589.053 469.55 596.804 472.744C591.172 472.89 563.501 470.587 558.315 469.037Z"/><path fill="#CC6445" transform="scale(0.473558 0.473558)" d="M460.067 589.519C466.438 589.064 491.207 592.39 497.559 594.655C490.366 595.247 467 592.172 460.067 589.519Z"/><path fill="#CC6445" transform="scale(0.473558 0.473558)" d="M459.555 541.451C463.685 541.21 484.435 542.983 486.992 545.322C480.261 545.635 465.557 544.448 459.555 541.451Z"/><path fill="#CC6445" transform="scale(0.473558 0.473558)" d="M509.698 595.652C516.77 596.074 528.735 596.728 535.227 599.558C529.378 600.162 514.917 598.454 509.698 595.652Z"/><path fill="#CC6445" transform="scale(0.473558 0.473558)" d="M514.908 578.049C520.242 577.276 532.271 579.191 537.247 581.374C531.145 581.81 520.509 580.53 514.908 578.049Z"/><path fill="#CC6445" transform="scale(0.473558 0.473558)" d="M529.026 465.315C534.514 465.302 543.857 465.926 548.846 467.922C543.721 468.431 534.816 467.682 529.78 466.546L529.026 465.315Z"/><path fill="#CC6445" transform="scale(0.473558 0.473558)" d="M516.5 517.706C522.871 517.051 529.306 517.983 535.23 520.418C529.498 521.031 521.759 520.143 516.5 517.706Z"/><path fill="#D78264" transform="scale(0.473558 0.473558)" d="M488.789 475.583C493.158 475.908 504.45 476.068 507.25 478.658C503.693 479.051 491.431 478.177 488.789 475.583Z"/><path fill="#CC6445" transform="scale(0.473558 0.473558)" d="M460.787 496.374C467.057 495.798 472.843 496.406 478.749 498.544C471.952 498.893 467.099 498.952 460.787 496.374Z"/><path fill="#CC6445" transform="scale(0.473558 0.473558)" d="M461.2 557.345C466.018 557.456 470.959 557.037 475.042 559.431C474.358 559.515 473.671 559.577 472.982 559.618C469.229 559.838 464.117 559.928 461.2 557.345Z"/><path fill="#D78264" transform="scale(0.473558 0.473558)" d="M610.805 458.029C615.462 457.49 620.1 457.824 624.488 459.517C619.294 459.924 615.655 459.858 610.805 458.029Z"/><path fill="#D78264" transform="scale(0.473558 0.473558)" d="M605.393 442.671C609.811 442.158 613.476 442.177 617.217 444.76C612.704 445.032 609.586 444.175 605.393 442.671Z"/><path fill="#FEFEFE" transform="scale(0.473558 0.473558)" d="M448.647 419.22L459.373 419.421C463.354 423.5 465.578 425.744 470.525 428.87C456.484 443.264 489.397 442.62 496.897 442.081C501.879 441.724 512.803 439.747 512.33 433.326C508.851 427.228 497.589 425.485 497.994 422.142C506.136 420.081 555.101 424.113 566.761 424.386L566.779 432.848C563.517 432.544 560.109 432.109 557.049 432.88C547.977 435.165 495.866 455.039 492.129 458.877C492.74 460.324 492.439 459.837 494.191 460.722C496.191 459.36 496.503 459.147 498.826 458.515C503.013 459.102 510.481 459.725 514.189 460.643C512.563 461.737 511.552 462.59 509.65 463.088C489.405 468.991 463.829 470.039 451.058 488.375C433.655 486.402 415.941 485.456 398.489 483.863C390.827 483.163 382.137 482.788 374.665 481.618C394.198 478.184 410.578 476.463 430.357 474.555C431.875 474.462 432.667 474.542 434.021 473.824C435.385 470.475 436.638 470.959 440.159 470.588C448.567 469.703 457.082 469.339 465.512 468.611C460.433 464.781 450.627 458.834 446.506 454.827L446.611 454.149C449.129 453.235 452.923 453.44 455.733 453.419L466.081 445.537C462.489 439.77 461.91 437.716 461.808 430.968C459.48 425.68 455.544 426.579 450.426 426.587L448.647 419.22Z"/><path fill="#CC6445" transform="scale(0.473558 0.473558)" d="M494.191 460.722C496.191 459.36 496.503 459.147 498.826 458.515C503.013 459.102 510.481 459.725 514.189 460.643C512.563 461.737 511.552 462.59 509.65 463.088C506.594 461.761 497.769 460.993 494.191 460.722Z"/><path fill="#FEFEFE" transform="scale(0.473558 0.473558)" d="M321.149 415.559C324.196 417.053 332.356 423.556 334.971 422.949C336.485 423.011 338.034 422.963 339.437 423.483C341.711 427.01 345.442 432.561 347.207 436.163C348.804 439.422 347.955 442.935 350.708 446.702C352.993 447.812 358.2 450.003 359.569 451.821L360.752 453.469C358.733 455.317 354.209 457.832 353.737 458.708C349.664 459.067 349.485 459.33 346.785 456.453C345.471 460.464 344.229 464.499 343.06 468.555L334.251 465.201L330.894 466.537C327.544 467.727 322.96 468.386 319.377 469.026C315.138 466.671 312.749 464.869 309.178 461.648L309.253 461.147C310.229 460.797 310.596 460.669 311.511 460.154L312.189 459.768C308.131 458.722 305.4 458.51 301.276 458.103C306.413 454.572 310.234 451.834 313.19 446.349L311.789 445.267C307.87 441.3 304.933 437.742 300.632 433.555C312.061 426.585 314.159 427.93 321.149 415.559Z"/><path fill="#CC6445" transform="scale(0.473558 0.473558)" d="M321.149 415.559C324.196 417.053 332.356 423.556 334.971 422.949C336.485 423.011 338.034 422.963 339.437 423.483C336.851 425.369 331.968 429.011 328.705 429.184C329.353 427.626 330.671 427.02 332.188 425.843C329.066 423.657 325.268 420.839 322.036 418.957C318.982 423.674 316.961 426.28 312.841 430.304C315.732 430.695 319.053 431.06 321.853 431.734C315.054 432.121 310.852 432.14 304.287 434.044C307.958 437.219 312.492 441.017 314.946 445.162L315.023 446.269C314.044 446.413 314.123 446.507 313.19 446.349L311.789 445.267C307.87 441.3 304.933 437.742 300.632 433.555C312.061 426.585 314.159 427.93 321.149 415.559Z"/><path fill="#CC6445" transform="scale(0.473558 0.473558)" d="M346.785 456.453C348.404 455.492 355.716 453.912 359.569 451.821L360.752 453.469C358.733 455.317 354.209 457.832 353.737 458.708C349.664 459.067 349.485 459.33 346.785 456.453Z"/><path fill="#CC6445" transform="scale(0.473558 0.473558)" d="M344.706 455.383C339.272 458.957 334.307 461.11 328.36 463.555C330.196 464.205 332.347 464.703 334.251 465.201L330.894 466.537C328.752 465.539 328.703 465.934 327.645 464.272L328.241 462.68C332.007 459.131 339.668 457.1 344.706 455.383Z"/><path fill="#CC6445" transform="scale(0.473558 0.473558)" d="M312.189 459.768C314.963 460.319 319.236 461.045 318.288 464.609L317.57 464.838C314.409 460.791 314.321 461.11 309.178 461.648L309.253 461.147C310.229 460.797 310.596 460.669 311.511 460.154L312.189 459.768Z"/><path fill="#CC6445" transform="scale(0.473558 0.473558)" d="M315.063 436.132C320.449 437.317 328.569 444.315 330.087 449.273L329.095 449.581L327.294 448.515C324.489 445.79 320.645 440.653 318.102 437.454C317.797 439.723 317.752 440.919 316.864 443.062L316.13 443.003C315.143 440.234 315.206 439.056 315.063 436.132Z"/><path fill="#CC6445" transform="scale(0.473558 0.473558)" d="M336.453 431.957C337.503 435.327 336.876 436.317 338.782 441.146L338.839 440.695C338.882 440.769 341.802 449.947 342.097 450.793C342.204 451.343 342.088 451.245 341.795 451.949C336.228 448.677 335.092 437.694 336.453 431.957Z"/><path fill="#DC987F" transform="scale(0.473558 0.473558)" d="M324.537 451.467C325.407 454.625 323.5 457.143 321.907 459.743C321.23 457.389 323.462 453.62 324.537 451.467Z"/><path fill="#FEFEFE" transform="scale(0.473558 0.473558)" d="M428.501 412.444C435.808 412.682 438.688 413.009 445.943 415.152C446.448 419.925 446.824 424.987 448.308 429.55C451.606 429.472 456.761 428.944 459.555 430.251L461.808 430.968C461.91 437.716 462.489 439.77 466.081 445.537L455.733 453.419C452.923 453.44 449.129 453.235 446.611 454.149L446.506 454.827C450.627 458.834 460.433 464.781 465.512 468.611C457.082 469.339 448.567 469.703 440.159 470.588C436.638 470.959 435.385 470.475 434.021 473.824C432.667 474.542 431.875 474.462 430.357 474.555L430.067 473.595C431.123 473.055 431.502 473.318 432.892 473.402L433.315 472.709L432.867 471.107L431.439 470.816L430.863 469.783C435.612 468.199 453.746 467.529 459.48 467.294C454.532 463.814 449.638 460.257 444.799 456.625C441.913 456.321 439.135 455.817 436.277 455.329L441.903 454.926C439.475 453.861 439.349 455.248 437.144 453.489C434.13 452.778 432.86 452.84 429.781 452.83C426.812 453.232 422.954 453.82 420.887 451.057C418.746 449.419 416.594 447.989 415.033 445.804L415.504 444.072C413.363 442.536 411.703 444.338 408.669 442.95C407.947 439.101 413.926 435.13 415.166 431.655C413.618 431.751 413.251 431.865 411.764 431.308C411.656 429.386 411.955 429.572 412.967 427.562L414.512 425.5C418.232 422.46 426.076 422.31 432.524 418.097L428.501 412.444Z"/><path fill="#CC6445" transform="scale(0.473558 0.473558)" d="M459.555 430.251L461.808 430.968C461.91 437.716 462.489 439.77 466.081 445.537L455.733 453.419C452.923 453.44 449.129 453.235 446.611 454.149L446.506 454.827C450.627 458.834 460.433 464.781 465.512 468.611C457.082 469.339 448.567 469.703 440.159 470.588C436.638 470.959 435.385 470.475 434.021 473.824C432.667 474.542 431.875 474.462 430.357 474.555L430.067 473.595C431.123 473.055 431.502 473.318 432.892 473.402L433.315 472.709L432.867 471.107L431.439 470.816L430.863 469.783C435.612 468.199 453.746 467.529 459.48 467.294C454.532 463.814 449.638 460.257 444.799 456.625C441.913 456.321 439.135 455.817 436.277 455.329L441.903 454.926C439.475 453.861 439.349 455.248 437.144 453.489C439.033 453.586 439.27 453.494 441.026 452.772C442.663 450.697 443.785 448.755 443.553 446.071C440.868 442.959 435.612 446.301 432.346 445.121L432.891 444.069C436.786 441.688 448.209 443.968 453.104 443.382C454.887 443.168 455.143 442.237 456.117 440.831L456.726 440.977L457.178 442.79C454.815 445.42 448.488 444.875 444.509 448.855C443.724 450.796 443.534 450.344 444.11 451.774C446.25 452.401 452.149 451.348 454.69 451.023C457.268 449.189 460.188 446.74 462.703 444.743C459.337 438.765 458.775 437.011 459.555 430.251Z"/><path fill="#CC6445" transform="scale(0.473558 0.473558)" d="M420.887 451.057C424.188 442.202 418.729 443.941 414.943 441.413C417.362 439.438 420.412 439.21 422.574 441.594C424.995 449.869 419.279 451.766 429.781 452.83C426.812 453.232 422.954 453.82 420.887 451.057Z"/><path fill="#CC6445" transform="scale(0.473558 0.473558)" d="M412.967 427.562L414.512 425.5C417.625 428.326 422.323 431.901 423.275 435.928L422.781 437.386L421.654 437.919C418.373 435.394 420.951 432.278 412.967 427.562Z"/><path fill="#CC6445" transform="scale(0.473558 0.473558)" d="M422.147 425.807C429.259 429.693 423.06 428.435 429.431 427.175L430.074 429.341C431.812 430.266 438.304 429.66 440.698 429.563C442.995 431.399 444.567 432.458 447.051 434.046L447.021 434.552L446.072 434.922C443.811 434.164 442.715 432.919 440.928 431.325C432.271 431.755 427.019 434.425 422.147 425.807Z"/><path fill="#D78264" transform="scale(0.473558 0.473558)" d="M430.872 435.274C432.666 435.216 434.461 435.364 436.221 435.716C437.904 436.052 440.879 437.125 441.884 438.606C440.728 439.05 439.674 438.325 438.231 437.787C433.205 437.194 429.147 437.707 424.235 438.401C426.42 437.34 428.669 436.308 430.872 435.274Z"/><path fill="#FEFEFE" transform="scale(0.473558 0.473558)" d="M393.088 455.224C402.975 456.237 407.144 452.912 416.613 450.646C418.385 452.226 420.251 454.001 422.178 455.354C427.126 455.213 431.319 455.112 436.277 455.329C439.135 455.817 441.913 456.321 444.799 456.625C449.638 460.257 454.532 463.814 459.48 467.294C453.746 467.529 435.612 468.199 430.863 469.783C422.509 465.064 415.264 460.723 405.955 458.347C411.003 462.281 423.793 468.778 429.936 472.121C412.435 475.006 394 476.03 375.435 479.145C371.525 476.182 355.9 465.037 353.91 461.247L353.737 458.708C357.719 459.07 385.111 456.292 388.424 454.152C389.46 454.356 392.303 454.82 393.088 455.224Z"/><path fill="#CC6445" transform="scale(0.473558 0.473558)" d="M388.424 454.152C389.46 454.356 392.303 454.82 393.088 455.224C394.823 456.804 399.409 458.782 399.78 459.91C395.195 461.166 394.691 459.737 391 457.067C379.028 458.46 365.619 459.473 353.91 461.247L353.737 458.708C357.719 459.07 385.111 456.292 388.424 454.152Z"/><path fill="#FEFEFE" transform="scale(0.473558 0.473558)" d="M498.826 458.515C515.114 449.559 534.4 443.858 551.703 437.116C558.508 434.464 562.882 434.922 569.833 435.476C557.969 441.812 525.489 460.295 514.189 460.643C510.481 459.725 503.013 459.102 498.826 458.515Z"/><path fill="#FEFEFE" transform="scale(0.473558 0.473558)" d="M570.116 421.46C571.517 418.427 572.209 415.886 575.216 414.704C578.639 416.2 578.411 419.058 581.266 421.987C584.44 425.79 587.092 430.21 586.667 435.266C578.874 440.816 578.644 433.961 572.591 432.858C572.531 435.621 579.2 438.132 581.715 439.748L581.157 441.039C578.15 441.772 573.984 439.274 571.979 437.082C568.968 430.985 568.964 428.086 570.116 421.46Z"/><path fill="#FEFEFE" transform="scale(0.473558 0.473558)" d="M350.708 446.702C352.304 445.811 352.87 445.584 354.606 445.002C361.254 445.328 367.534 446.621 373.736 446.965L375.285 453.489C379.257 453.377 384.723 452.981 388.424 454.152C385.111 456.292 357.719 459.07 353.737 458.708C354.209 457.832 358.733 455.317 360.752 453.469L359.569 451.821C358.2 450.003 352.993 447.812 350.708 446.702Z"/><path fill="#CC6445" transform="scale(0.473558 0.473558)" d="M350.708 446.702C352.304 445.811 352.87 445.584 354.606 445.002C357.352 446.471 360.394 447.615 361.5 450.425C361.369 451.855 361.409 452.138 360.752 453.469L359.569 451.821C358.2 450.003 352.993 447.812 350.708 446.702Z"/><path fill="#CC6445" transform="scale(0.473558 0.473558)" d="M572.903 403.82C573.681 401.503 572.897 400.547 573.539 398.047L574.099 398.664C576.321 402.837 577.555 405.793 579.319 410.134C580.433 413.476 581.599 416.51 581.929 420.035L581.266 421.987C578.411 419.058 578.639 416.2 575.216 414.704C572.209 415.886 571.517 418.427 570.116 421.46L568.705 420.252C568.886 415.988 572.398 413.307 575.555 411.101C574.654 408.68 573.769 406.253 572.903 403.82Z"/><path fill="#FEFEFE" transform="scale(0.473558 0.473558)" d="M574.099 398.664C576.321 402.837 577.555 405.793 579.319 410.134C580.433 413.476 581.599 416.51 581.929 420.035C579.388 416.582 574.251 403.046 574.099 398.664Z"/><path fill="#FEFEFE" transform="scale(0.473558 0.473558)" d="M582.307 412.074C595.277 404.488 601.288 396.856 605.695 381.877C614.128 353.215 587.105 326.817 603.054 298.733C606.667 292.47 611.824 287.237 618.032 283.533C642.732 268.871 666.51 283.995 678.082 306.626C682.812 315.878 688.801 325.264 694.522 333.935C703.328 346.952 713.623 359.109 720.753 373.15C730.255 392.272 733.363 409.633 736.267 430.355C729.438 430.158 722.61 429.89 715.786 429.554L719.842 420.983C716.105 424.759 711.586 429.629 707.406 432.782C690.922 445.218 668.498 441.659 649.213 442.614C642.085 442.968 630.503 449.324 623.645 445.928C619.799 441.256 627.352 433.014 631.295 430.765C644.386 423.296 658.933 413.862 672.375 407.444L672.309 406.773L668.675 405.879L665.465 405.594C656.525 413.6 645.245 420.957 633.418 424.412C629.297 425.617 613.227 425.182 608.713 422.738C608.306 422.517 607.987 421.369 607.832 420.862L607.059 420.907C604.713 424.231 597.968 435.163 594.01 436.27C593.21 436.494 593.1 436.061 592.276 435.359C591.907 431.615 595.799 428.667 595.229 424.203L594.688 424.169C593.433 426.514 591.897 429.959 589.915 431.508L588.918 431.289C586.772 427.376 584.204 417.019 582.307 412.074Z"/><path fill="#CC6445" transform="scale(0.473558 0.473558)" d="M676.076 385.638C674.752 394.643 673.706 397.901 668.675 405.879L665.465 405.594C671.673 398.2 672.677 394.556 676.076 385.638Z"/><path fill="#CC6445" transform="scale(0.473558 0.473558)" d="M634.884 326.415C645.125 327.653 647.107 338.035 642.34 345.799C633.189 343.284 629.93 334.454 634.884 326.415Z"/><path fill="#CC6445" transform="scale(0.473558 0.473558)" d="M609.888 330.229C620.341 333.674 621.077 340.564 617.593 349.824C606.905 346.493 605.901 339.566 609.888 330.229Z"/><path fill="#CC6445" transform="scale(0.473558 0.473558)" d="M679.538 406.59C684.989 406.418 687.759 408.323 691.861 411.45C689.018 411.153 682.403 407.913 679.538 406.59Z"/><path fill="#353535" transform="scale(0.473558 0.473558)" d="M712.25 99.3829L720.524 99.4053L720.422 188.926L765.33 188.977C771.782 188.963 786.543 186.862 790.4 191.98C790.481 194.287 790.812 193.806 789.774 195.426C786.851 196.596 782.487 196.418 779.227 196.495C773.47 200.285 759.378 193.089 754.546 199.402C766.485 199.257 778.424 199.227 790.364 199.311C790.373 207.145 790.928 224.433 790.382 231.682L790.223 234.255C791.191 252.599 790.462 277.798 790.441 296.57L790.435 410.38C783.851 412.133 777.689 414.088 771.386 416.706C770.319 417.149 766.275 419.052 765.618 419.133C764.997 422.179 764.845 424.277 762.376 426.311C760.324 428.883 762.612 429.691 757.924 432.084C753.396 431.844 754.204 423.723 754.216 420.355C754.124 410.732 754.958 402.303 756.44 392.768C758.518 379.406 766.855 361.34 756.447 349.77C750.753 343.44 740.324 344.636 734.455 341.525C718.848 333.254 712.174 327.539 693.84 327.285L689.218 319.786C705.12 316.048 714.479 320.08 728.155 327.672L731.092 326.185C728.137 324.262 726.667 323.413 723.485 321.924L720.461 320.17C717.864 319.021 715.056 318.02 712.385 317.018C712.137 276.787 712.118 236.554 712.328 196.322L644.799 196.476L644.711 188.82L712.345 188.892L712.25 99.3829Z"/><path fill="#353535" transform="scale(0.473558 0.473558)" d="M790.223 234.255C791.191 252.599 790.462 277.798 790.441 296.57L790.435 410.38C783.851 412.133 777.689 414.088 771.386 416.706C770.319 417.149 766.275 419.052 765.618 419.133C764.997 422.179 764.845 424.277 762.376 426.311C760.324 428.883 762.612 429.691 757.924 432.084C753.396 431.844 754.204 423.723 754.216 420.355C754.124 410.732 754.958 402.303 756.44 392.768C758.518 379.406 766.855 361.34 756.447 349.77C750.753 343.44 740.324 344.636 734.455 341.525C718.848 333.254 712.174 327.539 693.84 327.285L689.218 319.786C705.12 316.048 714.479 320.08 728.155 327.672L731.092 326.185C737.012 329.516 753.735 337.413 760.176 335.518L760.935 336.087C768.498 328.526 770.167 322.808 774.431 313.931C777.987 311.823 780.437 316.539 782.238 319.23C781.905 317.116 780.866 314.685 780.103 312.635L773.449 310.524C764.071 292.709 768.172 286.871 770.458 267.477L777.475 261.563C777.56 256.528 778.014 250.795 778.308 245.714C782.347 242.06 786.318 238.075 790.223 234.255Z"/><path fill="#FEFEFE" transform="scale(0.473558 0.473558)" d="M689.218 319.786C705.12 316.048 714.479 320.08 728.155 327.672L731.092 326.185C737.012 329.516 753.735 337.413 760.176 335.518L760.935 336.087C767.928 343.399 774.259 347.846 773.962 358.17C773.416 377.2 764.502 400.562 765.618 419.133C764.997 422.179 764.845 424.277 762.376 426.311C760.324 428.883 762.612 429.691 757.924 432.084C753.396 431.844 754.204 423.723 754.216 420.355C754.124 410.732 754.958 402.303 756.44 392.768C758.518 379.406 766.855 361.34 756.447 349.77C750.753 343.44 740.324 344.636 734.455 341.525C718.848 333.254 712.174 327.539 693.84 327.285L689.218 319.786Z"/><path fill="#CC6445" transform="scale(0.473558 0.473558)" d="M731.092 326.185C737.012 329.516 753.735 337.413 760.176 335.518L760.935 336.087C767.928 343.399 774.259 347.846 773.962 358.17C773.416 377.2 764.502 400.562 765.618 419.133C764.997 422.179 764.845 424.277 762.376 426.311C763.046 413.908 762.606 406.331 764.727 393.102C766.725 380.642 772.8 366.522 770.764 354.538C767.917 337.776 750.323 338.454 737.883 333.449C734.506 332.09 731.224 329.749 728.155 327.672L731.092 326.185Z"/><path fill="#FEFEFE" transform="scale(0.473558 0.473558)" d="M712.25 99.3829L720.524 99.4053L720.422 188.926L765.33 188.977C771.782 188.963 786.543 186.862 790.4 191.98C790.481 194.287 790.812 193.806 789.774 195.426C786.851 196.596 782.487 196.418 779.227 196.495C773.47 200.285 759.378 193.089 754.546 199.402L753.52 199.797L752.048 199.697C749.805 207.316 750.496 212.895 750.725 220.828C741.38 229.351 732.549 237.38 723.558 246.267L723.703 247.737C722.964 254.164 723.392 269.862 723.447 276.627C723.551 291.726 723.564 306.825 723.485 321.924L720.461 320.17C717.864 319.021 715.056 318.02 712.385 317.018C712.137 276.787 712.118 236.554 712.328 196.322L644.799 196.476L644.711 188.82L712.345 188.892L712.25 99.3829Z"/><path fill="#353535" transform="scale(0.473558 0.473558)" d="M723.524 199.446C730.823 199.463 745.224 199.06 752.048 199.697C749.805 207.316 750.496 212.895 750.725 220.828C741.38 229.351 732.549 237.38 723.558 246.267C722.868 232.695 723.504 213.457 723.524 199.446Z"/><path fill="#CC6445" transform="scale(0.473558 0.473558)" d="M720.496 196.337L779.227 196.495C773.47 200.285 759.378 193.089 754.546 199.402L753.52 199.797L752.048 199.697C745.224 199.06 730.823 199.463 723.524 199.446C723.504 213.457 722.868 232.695 723.558 246.267L723.703 247.737C722.964 254.164 723.392 269.862 723.447 276.627C723.551 291.726 723.564 306.825 723.485 321.924L720.461 320.17L720.496 196.337Z"/><path fill="#FEFEFE" transform="scale(0.473558 0.473558)" d="M790.382 231.682L790.223 234.255C786.318 238.075 782.347 242.06 778.308 245.714C778.014 250.795 777.56 256.528 777.475 261.563L770.458 267.477C768.172 286.871 764.071 292.709 773.449 310.524L780.103 312.635C780.866 314.685 781.905 317.116 782.238 319.23C780.437 316.539 777.987 311.823 774.431 313.931C770.167 322.808 768.498 328.526 760.935 336.087L760.176 335.518C765.027 326.861 768.595 324.392 773.052 313.794C768.467 304.578 766.926 300.561 765.035 290.743C756.724 294.239 752.986 297.008 746.355 302.868C752.389 294.746 755.699 293.683 764.695 289.208C766.984 282.357 767.611 276.628 768.572 269.517C765.441 270.593 763.028 271.383 760.043 272.87C757 274.386 754.964 277.524 752.328 278.25C753.131 273.78 765.279 269.211 769.027 266.398C771.583 264.479 773.272 262.842 775.548 260.638C775.746 255.539 776.103 250.3 776.395 245.192C780.029 241.188 786.228 234.958 790.382 231.682Z"/><path fill="#FEFEFE" transform="scale(0.473558 0.473558)" d="M752.048 199.697L753.52 199.797C752.173 207.382 752.444 213.853 752.552 221.543C743.434 230.176 733.304 239.712 723.703 247.737L723.558 246.267C732.549 237.38 741.38 229.351 750.725 220.828C750.496 212.895 749.805 207.316 752.048 199.697Z"/><path fill="#FEFEFE" transform="scale(0.473558 0.473558)" d="M572.299 561.854C585.387 562.533 606.508 565.544 620.058 567.044L721.388 578.159C711.661 600.138 722.089 618.417 724.963 639.698C726.384 650.22 713.536 650.418 705.809 650.358C691.842 650.204 688.454 650.396 675.945 658.443C673.307 660.139 669.216 662.322 666.145 663.077C651.591 666.654 643.713 651.07 631.104 648.72C622.316 647.083 613.828 653.495 604.943 650.596C595.393 647.48 594.481 634.898 586.238 630.541C581.702 628.143 572.639 633.074 567.7 630.168C565.623 626.963 567.391 618.695 568.323 615.068C573.121 596.404 572.699 580.961 572.299 561.854Z"/><path fill="#CC6445" transform="scale(0.473558 0.473558)" d="M672.333 576.992C674.828 583.707 672.738 604.103 675.148 612.698C675.941 615.525 676.881 626.805 677.004 630.01C673.043 620.328 670.437 587.22 672.333 576.992Z"/><path fill="#D78264" transform="scale(0.473558 0.473558)" d="M633.352 590.508L633.916 591.028C636.103 596.979 638.163 629.429 637.77 636.463C636.159 633.469 633.707 596.336 633.352 590.508Z"/><path fill="#D78264" transform="scale(0.473558 0.473558)" d="M588.062 570.887L588.931 571.642C592.174 581.771 590.421 603.146 589.69 614.298L589.487 614.351C588.53 611.586 589.373 595.92 589.133 591.507C588.78 585.025 588.45 577.491 588.062 570.887Z"/><path fill="#FEFEFE" transform="scale(0.473558 0.473558)" d="M862.286 471.626C869.591 468.437 906.598 455.227 909.88 452.505C910.893 448.563 906.392 448.477 905.284 444.876C909.163 441.131 939.221 444.302 946.219 444.7L848.169 492.296C831.503 500.35 814.55 508.004 798.063 516.408C743.354 512.346 688.678 507.858 634.038 502.947L589.797 499.272C581.369 498.562 570.377 497.375 562.092 497.27C577.858 488.184 596.696 482.618 613.412 474.883C619.399 475.647 625.975 476.347 631.894 477.266C631.859 481.135 631.306 488.908 634.438 491.546C642.297 498.167 661.604 499.096 669.532 492.087C671.297 490.526 671.712 485.183 671.947 482.787C677.667 488.069 681.584 491.828 689.296 494.156C692.176 495.363 697.542 493.491 699.786 491.458C703.521 488.075 703.782 485.974 704.078 481.113C712.904 477.317 722.058 474.034 730.851 470.153C738.1 473.092 740.282 473.9 745.8 479.312C747.04 480.472 747.088 480.588 748.68 481.018L749.026 482.224C754.667 488.386 756.74 483.135 763.339 483.932C774.889 485.329 789.103 488.031 800.059 491.742L801.296 489.763C798.258 488.913 774.746 483.217 773.96 482.441C783 479.855 792.509 480.975 801.634 480.946C802.628 480.943 806.783 478.36 810.832 477.799C823.082 476.102 832.195 477.452 844.31 474.093C841.953 471.216 839.934 469.115 837.355 466.467C846.653 467.246 853.203 469.165 862.286 471.626Z"/><path fill="#FEFEFE" transform="scale(0.473558 0.473558)" d="M713.54 491.268C718.71 489.868 746.084 481.485 749.026 482.224C754.667 488.386 756.74 483.135 763.339 483.932C774.889 485.329 789.103 488.031 800.059 491.742C796.907 494.195 767.607 503.325 760.799 505.995C744.992 501.262 729.238 496.353 713.54 491.268Z"/><path fill="#CC6445" transform="scale(0.473558 0.473558)" d="M745.8 479.312C747.04 480.472 747.088 480.588 748.68 481.018L749.026 482.224C746.084 481.485 718.71 489.868 713.54 491.268C729.238 496.353 744.992 501.262 760.799 505.995C767.607 503.325 796.907 494.195 800.059 491.742L801.296 489.763L808.479 491.731C792.543 497.166 776.662 502.757 760.836 508.505C747.442 504.584 718.442 496.537 706.779 491.364C718.29 485.686 736.885 483.556 745.8 479.312Z"/><path fill="#353535" transform="scale(0.473558 0.473558)" d="M644.707 199.303C666.27 199.437 687.833 199.425 709.395 199.267C709.389 211.914 709.984 313.755 708.554 315.819C699.507 315.532 696.372 315.708 687.571 317.664C674.254 294.468 671.116 283.962 644.71 275.116L644.707 199.303Z"/><path fill="#B1B3B4" transform="scale(0.473558 0.473558)" d="M694.994 231.034C694.789 233.519 676.094 252.351 672.999 255.418C672.772 252.097 691.624 234.359 694.994 231.034Z"/><path fill="#818285" transform="scale(0.473558 0.473558)" d="M674.076 249.76L674.676 250.102C673.214 254.045 661.492 264.439 657.874 267.631L657.158 267.912L657.097 267.212C661.308 261.825 669.015 254.456 674.076 249.76Z"/><path fill="#FEFEFE" transform="scale(0.473558 0.473558)" d="M679.363 206.026L679.7 206.415C678.714 209.241 664.995 221.901 661.812 224.946L661.491 224.043C666.55 217.914 673.544 211.46 679.363 206.026Z"/><path fill="#FEFEFE" transform="scale(0.473558 0.473558)" d="M817.601 575.87C842.525 614.277 809.657 656.466 800.148 694.378C797.268 705.861 796.82 711.069 797.122 722.795C792.107 726.355 790.17 728.062 787.802 733.592L787.352 735.787C787.14 741.444 788.982 749.546 794.601 752.243C798.61 754.036 803.039 752.398 804.545 748.208C806.119 743.828 805.055 738.836 800.213 737.359C799.203 739.701 803.538 743.562 801.915 748.412C801.04 749.45 800.143 750.32 798.668 750.324C787.756 750.436 787.716 726.07 798.841 727.753C818.04 730.658 812.876 771.27 791.127 758.638C788.275 756.762 785.079 753.601 783.268 750.747C758.112 711.096 781.728 664.979 777.311 622.332C775.731 607.072 770.155 595.384 761.792 582.942C771.624 584.878 783.538 586.2 793.603 587.586C801.514 583.59 809.498 579.438 817.601 575.87Z"/><path fill="#CC6445" transform="scale(0.473558 0.473558)" d="M787.352 735.787C768.622 707.968 807.574 640.107 799.342 607.359C798.35 603.415 794.795 593.778 794.949 590.714L795.659 590.258C797.994 592.808 799.49 598.446 800.28 601.89C811.149 649.311 775.982 684.773 787.802 733.592L787.352 735.787Z"/><path fill="#FEFEFE" transform="scale(0.473558 0.473558)" d="M632.501 275.481L632.38 220.327C632.334 207.521 632.019 195.614 632.792 182.851C635.617 136.231 667.506 86.3492 718.495 86.1775C763.991 86.0243 791.411 127.764 800.345 167.711C803.35 181.147 802.712 197.262 802.69 210.924L802.632 254.353L802.64 409.538L793.427 409.619L793.411 259.031L793.436 215.794C793.488 179.18 793.189 145.837 765.393 117.834C765.131 117.571 764.868 117.311 764.601 117.053L759.97 116.97L755.284 113.227L754.406 111.72L751.313 109.594L750.76 106.005C716.562 84.4793 678.511 100.778 658.524 132.612C640.063 162.015 641.604 189.232 641.645 222.434L641.709 274.93L632.501 275.481Z"/><path fill="#CC6445" transform="scale(0.473558 0.473558)" d="M750.76 106.005C756.612 109.606 759.642 111.973 764.601 117.053L759.97 116.97L755.284 113.227L754.406 111.72L751.313 109.594L750.76 106.005Z"/><path fill="#FEFEFE" transform="scale(0.473558 0.473558)" d="M264.303 529.114C273.224 529.591 282.122 530.432 290.975 531.634C252.337 564.038 280.139 596.313 291.527 633.239C297.374 652.199 293.727 663.112 284.573 679.645C320.738 649.237 267.441 596.485 274.747 560.913C277.722 546.432 284.961 539.948 296.386 532.022C300.832 532.431 303.987 532.905 308.341 533.67C301.552 538.852 294.443 543.876 290.491 551.709C282.309 567.929 289.803 590.827 295.027 606.924C299.107 620.057 303.084 631.536 304.337 645.748C306.149 667.036 296.906 690.505 272.93 692.613C257.613 693.96 243.604 673.652 255.168 661.522C264.283 651.96 280.889 657.03 280.344 671.455C279.882 683.703 263.783 685.803 263.283 673.532C263.32 668.809 270.75 672.3 272.935 670.91C271.514 667.89 268.114 666.014 265.06 667.922C253.685 675.023 267.268 690.803 277.257 682.533C285.056 676.076 283.693 669.477 282.026 660.589C280.85 652.19 281.897 643.684 278.565 635.451C266.446 599.99 221.274 561.794 264.303 529.114Z"/><path fill="#353535" transform="scale(0.473558 0.473558)" d="M723.44 99.0621C736.045 101.598 739.977 103.692 751.313 109.594L754.406 111.72L755.284 113.227L759.97 116.97C781.007 138.281 786.728 157.4 790.581 186.431C785.302 186.503 766.234 187.051 761.959 185.982L760.101 185.944C756.384 186.183 752.665 186.388 748.944 186.559C745.503 186.693 738.868 187.198 736.459 184.972L735.855 184.456L735.4 185.234C732.759 187.136 726.68 186.531 723.262 186.451C723.418 157.239 723.063 128.367 723.44 99.0621Z"/><path fill="#353535" transform="scale(0.473558 0.473558)" d="M723.44 99.0621C736.045 101.598 739.977 103.692 751.313 109.594L754.406 111.72C749.962 117.937 745.822 124.367 742.002 130.986C745.771 135.985 749.925 141.288 753.288 146.513C750.131 150.769 747.05 154.807 744.244 159.308C748.883 175.286 740.663 172.445 735.855 184.456L735.4 185.234C732.759 187.136 726.68 186.531 723.262 186.451C723.418 157.239 723.063 128.367 723.44 99.0621Z"/><path fill="#FEFEFE" transform="scale(0.473558 0.473558)" d="M754.406 111.72L755.284 113.227C752.095 119.159 748.492 125.233 744.389 130.582L755.405 145.644L766.486 145.51C769.211 147.18 772.112 148.889 774.785 150.61C765.275 147.73 764.523 147.067 754.53 147.497L746.256 159.229C750.234 173.485 743.604 174.432 736.459 184.972L735.855 184.456C740.663 172.445 748.883 175.286 744.244 159.308C747.05 154.807 750.131 150.769 753.288 146.513C749.925 141.288 745.771 135.985 742.002 130.986C745.822 124.367 749.962 117.937 754.406 111.72Z"/><path fill="#B1B3B4" transform="scale(0.473558 0.473558)" d="M767.412 174.581L768.027 175.72L761.959 185.982L760.101 185.944L767.412 174.581Z"/><path fill="#818285" transform="scale(0.473558 0.473558)" d="M772.41 167.18C771.145 169.965 769.787 173.281 768.027 175.72L767.412 174.581C769.236 171.179 769.951 170.186 772.41 167.18Z"/><path fill="#353535" transform="scale(0.473558 0.473558)" d="M708.09 100.062L708.488 100.277C710.428 103.424 709.389 175.808 709.385 185.925C688.294 186.04 668.175 186.274 647.019 186.055C645.705 185.65 646.291 186.01 645.379 184.706C643.885 173.539 652.387 148.783 658.341 138.813C671.16 117.348 683.977 106.838 708.09 100.062Z"/><path fill="#B1B3B4" transform="scale(0.473558 0.473558)" d="M695.205 134.147L695.494 134.779C692.281 138.938 686.182 145.161 682.445 149.197L682.132 148.988L681.998 148.171C684.947 143.567 691.151 137.944 695.205 134.147Z"/><path fill="#FEFEFE" transform="scale(0.473558 0.473558)" d="M678.705 149.934C676.253 154.443 670.397 160.164 666.686 164.006L665.771 163.163C669.787 158.474 674.108 154.054 678.705 149.934Z"/><path fill="#818285" transform="scale(0.473558 0.473558)" d="M666.686 164.006C665.329 165.548 662.183 168.849 660.296 169.321L660.194 169.665C661.177 167.48 663.99 164.949 665.771 163.163L666.686 164.006Z"/><path fill="#FEFEFE" transform="scale(0.473558 0.473558)" d="M550.974 519.805L740.079 537.143C741.91 539.121 744.703 541.618 746.722 543.528C747.172 549.309 748.293 551.139 743.018 553.906C740.009 558.186 736.703 556.877 731.546 556.402C714.144 554.801 696.83 552.374 679.441 550.545L549.624 537.242C549.974 531.422 550.424 525.609 550.974 519.805Z"/><path fill="#FEFEFE" transform="scale(0.473558 0.473558)" d="M922.535 474.147L923.532 474.333C925.475 477.216 924.538 499.65 924.427 504.767C912.329 512.058 898.644 518.935 886.054 525.425C864.668 536.31 843.339 547.307 822.068 558.414C821.158 558.302 821.496 558.353 820.658 557.722C819.513 552.602 820.156 530.639 820.248 524.452C833.546 518.593 846.328 511.845 859.356 505.398L922.535 474.147Z"/><path fill="#CC6445" transform="scale(0.473558 0.473558)" d="M915.222 482.733C920.93 486.644 920.262 493.144 920.226 499.189C919.168 500.969 916.876 505.148 915.345 506.166C906.724 511.892 895.921 517.107 886.738 521.831L831.888 549.923C830.129 547.383 828.31 546.103 825.923 544.159C825.638 540.668 825.692 536.315 825.641 532.749C828.447 530.094 828.777 529.241 830.419 525.818C839.696 520.048 853.175 513.718 863.185 508.715L915.222 482.733Z"/><path fill="#FEFEFE" transform="scale(0.473558 0.473558)" d="M913.296 486.346C918.401 487.508 917.833 493.795 917.734 497.737C916.509 499.641 914.1 503.935 912.318 504.929C886.964 519.074 859.865 533.522 833.699 545.875C823.678 540.509 828.87 534.678 832.909 527.461C841.049 522.2 854.691 515.906 863.841 511.341C880.369 503.095 896.855 494.763 913.296 486.346Z"/><path fill="#FEFEFE" transform="scale(0.473558 0.473558)" d="M927.359 516.824C981.124 539.458 906.57 604.497 917.596 642.125C920.344 651.5 930.684 675.604 943.519 671.252C946.488 670.234 948.9 668.028 950.179 665.161C953.231 658.129 946.156 651.267 939.168 654.673C937.857 656.39 938.135 655.568 937.998 657.701C941.072 657.887 942.104 656.138 945.572 657.02C951.308 661.571 946.676 673.616 932.677 666.017C930.028 661.802 928.946 658.739 929.571 653.83C934.183 642.401 944.551 635.808 956.302 644.327C963.141 649.284 961.331 661.741 955.751 667.667C938.057 686.459 915.934 668.631 910.552 648.585C901.064 613.649 927.524 583.856 925.882 549.39C925.37 538.664 920.558 531.997 912.798 525.184C916.829 522.549 923.03 519.273 927.359 516.824Z"/><path fill="#FEFEFE" transform="scale(0.473558 0.473558)" d="M559.297 499.923C584.733 503.035 616.931 504.705 643.009 506.848L797.023 519.471C797.272 522.607 797.977 526.98 796.624 529.706C794.735 531.088 795.6 530.712 792.663 530.624C762.599 528.352 732.556 525.804 702.538 522.981L553.345 510.031C555.441 505.851 556.469 503.772 559.297 499.923Z"/><path fill="#CC6445" transform="scale(0.473558 0.473558)" d="M713.137 432.329C731.956 433.655 761.48 431.851 778.334 439.084C780.259 439.739 779.23 440.423 781.138 441.179C778.25 442.244 775.729 443.008 773.201 444.774L772.357 443.772C770.683 443.536 770.57 443.514 768.99 442.924L768.445 441.666C756.234 437.539 739.116 437.72 727.062 442.311C725.299 447.634 724.485 449.263 719.189 451.992C713.069 455.181 706.002 456.043 699.296 454.421C706.721 463.244 716.055 465.91 727.186 468.921C728.416 469.308 729.637 469.719 730.851 470.153C722.058 474.034 712.904 477.317 704.078 481.113C703.782 485.974 703.521 488.075 699.786 491.458C697.542 493.491 692.176 495.363 689.296 494.156L690.239 492.331L689.638 491.549C683.178 489.921 677.569 485.917 673.929 480.335C669.227 473.22 668.603 466.58 670.311 458.483L669.384 456.63C667.281 459.053 667.579 462.119 664.953 466.097L664.299 466.188C664.38 462.964 665.134 460.611 663.877 457.985C660.855 454.753 654.93 455.274 650.277 455.016C669.787 443.755 669.483 444.318 692.378 445.852C693.081 445.553 693.104 445.441 693.716 444.955L693.303 443.458C702.548 438.751 704.085 439.352 713.137 432.329Z"/><path fill="#FEFEFE" transform="scale(0.473558 0.473558)" d="M713.137 432.329C731.956 433.655 761.48 431.851 778.334 439.084C780.259 439.739 779.23 440.423 781.138 441.179C778.25 442.244 775.729 443.008 773.201 444.774L772.357 443.772C770.683 443.536 770.57 443.514 768.99 442.924L768.445 441.666C756.234 437.539 739.116 437.72 727.062 442.311C725.299 447.634 724.485 449.263 719.189 451.992C713.069 455.181 706.002 456.043 699.296 454.421C706.721 463.244 716.055 465.91 727.186 468.921C725.123 470.472 707.208 477.103 703.853 478.519C700.856 469.25 696.772 464.446 690.811 457.075C694.115 455.634 709.153 449.785 709.037 446.692C705.961 444.034 697.501 443.828 693.303 443.458C702.548 438.751 704.085 439.352 713.137 432.329Z"/><path fill="#CC6445" transform="scale(0.473558 0.473558)" d="M778.334 439.084C780.259 439.739 779.23 440.423 781.138 441.179C778.25 442.244 775.729 443.008 773.201 444.774L772.357 443.772C770.683 443.536 770.57 443.514 768.99 442.924L768.445 441.666C772.394 443.161 775.096 441.233 778.334 439.084Z"/><path fill="#FEFEFE" transform="scale(0.473558 0.473558)" d="M650.277 455.016C669.787 443.755 669.483 444.318 692.378 445.852C696.097 446.82 701.01 447.226 704.908 447.673C699.051 450.194 694.248 452.586 688.567 455.507C680.223 450.301 676.609 449.102 669.384 456.63C667.281 459.053 667.579 462.119 664.953 466.097L664.299 466.188C664.38 462.964 665.134 460.611 663.877 457.985C660.855 454.753 654.93 455.274 650.277 455.016Z"/><path fill="#FEFEFE" transform="scale(0.473558 0.473558)" d="M670.311 458.483C672.071 471.249 672.991 476.473 683.23 486.105C684.499 487.298 688.873 490.699 689.638 491.549C683.178 489.921 677.569 485.917 673.929 480.335C669.227 473.22 668.603 466.58 670.311 458.483Z"/><path fill="#FEFEFE" transform="scale(0.473558 0.473558)" d="M677.329 453.266C689.697 455.839 709.776 477.652 697.428 490.045C682.298 487.18 665.365 467.663 677.329 453.266Z"/><path fill="#FEFEFE" transform="scale(0.473558 0.473558)" d="M409.045 598.92C419.481 599.982 435.772 603.414 447.004 604.999C472.673 608.485 498.428 611.298 524.243 613.434C518.037 623.437 517.746 627.159 523.628 637.306C521.105 638.148 414.434 623.454 409.1 620.732C407.117 619.72 405.442 616.145 404.957 614.124C403.631 608.591 406.295 603.498 409.045 598.92Z"/><path fill="#FEFEFE" transform="scale(0.473558 0.473558)" d="M551.393 513.111C570.885 513.447 601.988 517.311 622.169 519.066L757.493 530.788L757.494 565.747C733.772 563.965 709.55 560.874 685.851 558.331L559.551 545.049C556.234 544.769 551.414 545.142 549.732 542.15L550.255 540.719C553.292 538.961 565.427 541.11 569.664 541.564L601.766 544.929L700.298 555.204C705.865 555.812 739.233 559.888 742.745 559.012C745.064 554.479 748.898 554.537 749.835 551.343C749.464 548.243 749.493 545.059 749.455 541.931C746.45 539.787 744.437 537.491 741.916 534.833C725.642 532.097 704.437 530.988 687.587 529.494L591.572 520.859C585.202 520.278 557.532 518.546 553.247 516.889C551.443 515.05 551.994 515.951 551.393 513.111Z"/><path fill="#FEFEFE" transform="scale(0.473558 0.473558)" d="M240.726 473.582C265.499 474.604 292.326 477.778 317.201 479.91L449.821 491.135L446.671 499.517L446.284 500.29C441.319 502.105 262.951 485.669 241.044 483.849C240.776 480.614 240.791 476.866 240.726 473.582Z"/><path fill="#FEFEFE" transform="scale(0.473558 0.473558)" d="M549.762 546.645C555.719 546.739 567.736 548.387 573.95 549.065L618.8 553.842C664.625 558.636 711.8 563.153 757.495 568.831L757.462 579.266C702.367 573.857 647.138 566.785 592.099 560.706C578.125 559.163 564.388 557.287 550.321 556.367L549.762 546.645Z"/><path fill="#FEFEFE" transform="scale(0.473558 0.473558)" d="M313.342 499.241C319.552 499.446 326.443 500.042 332.635 500.671C370.09 504.478 407.915 506.811 445.323 510.85C445.518 515.657 446.861 521.65 445.4 525.952C443.77 527.065 444.078 526.659 441.512 526.4C425.977 524.531 410.273 523.308 394.682 521.773L312.868 513.683C310.728 511.364 308.625 509.012 306.56 506.627C308.311 503.902 310.993 501.518 313.342 499.241Z"/><path fill="#FEFEFE" transform="scale(0.473558 0.473558)" d="M950.26 446.074C950.507 446.155 951.205 446.703 951.455 446.883C952.166 449.659 951.726 453.469 951.549 456.42C934.368 466.029 914.096 475.172 896.203 483.881L801.866 530.373C801.286 530.253 801.056 529.996 800.505 529.637C799.709 526.721 799.968 522.127 799.995 518.975C813.34 511.027 837.816 500.644 852.363 493.658L950.26 446.074Z"/><path fill="#FEFEFE" transform="scale(0.473558 0.473558)" d="M760.444 531.053C770.921 532.196 781.582 532.898 792.127 534.014L792.118 583.994C783.257 582.412 769.487 581.063 760.27 580.076C760.744 564.05 760.441 547.169 760.444 531.053Z"/><path fill="#CC6445" transform="scale(0.473558 0.473558)" d="M767.32 538.13C772.736 538.115 778.233 538.712 783.636 539.186L783.554 572.987C778.109 572.454 772.668 571.881 767.231 571.268C767.098 560.222 767.127 549.175 767.32 538.13Z"/><path fill="#FEFEFE" transform="scale(0.473558 0.473558)" d="M769.875 540.539C773.641 540.836 777.404 541.162 781.166 541.515L781.2 570.658C778.08 569.926 773.032 569.534 769.717 569.177C769.599 559.631 769.651 550.083 769.875 540.539Z"/><path fill="#FEFEFE" transform="scale(0.473558 0.473558)" d="M845.123 391.333C860.426 396.741 873.251 401.793 889.403 403.788C877.486 415.038 869.839 414.914 858.508 431.636C858.857 431.662 819.275 414.44 815.222 412.742C821.496 400.236 832.732 395.638 845.123 391.333Z"/><path fill="#DC987F" transform="scale(0.473558 0.473558)" d="M875.726 406.431L876.425 406.666C875.77 408.477 868.928 411.4 866.397 413.695C861.874 417.795 860.029 419.953 856.64 424.843C856.168 424.77 856.173 424.64 855.689 424.271C859.124 415.767 868.112 410.927 875.726 406.431Z"/><path fill="#E4B2A2" transform="scale(0.473558 0.473558)" d="M847.516 396.728L848.01 397.356C846.633 399.13 844.121 399.89 841.887 401.547C836.237 405.737 833.886 408.01 829.605 413.481C829.352 413.244 829.088 412.693 828.895 412.356C831.09 406.59 842.048 399.697 847.516 396.728Z"/><path fill="#DC987F" transform="scale(0.473558 0.473558)" d="M868.195 403.555L868.497 403.752C868.234 405.103 865.674 406.451 864.385 407.273C857.923 411.39 853.993 415.717 849.743 421.995C849.502 421.763 849.229 421.206 849.043 420.881C850.429 414.991 862.955 406.824 868.195 403.555Z"/><path fill="#E4B2A2" transform="scale(0.473558 0.473558)" d="M841.128 395.489L841.903 395.855C840.351 397.764 835.788 399.695 833.25 401.724C829.267 404.907 827.285 407.101 824.044 411.026C823.613 411.177 823.91 411.119 823.149 410.868C824.269 405.394 836.372 398.207 841.128 395.489Z"/><path fill="#DC987F" transform="scale(0.473558 0.473558)" d="M854.143 398.666L854.474 398.871C854.219 400.089 845.972 404.815 843.362 407.384C839.796 410.894 838.881 411.906 835.797 415.82C835.402 415.498 835.477 415.377 835.234 414.772C838.099 408.447 848.05 402.053 854.143 398.666Z"/><path fill="#DC987F" transform="scale(0.473558 0.473558)" d="M860.322 401.05L860.611 401.277C860.225 402.651 857.551 404.173 856.242 405.069C850.766 408.816 846.959 413.114 842.831 418.219L842.442 417.819L842.497 416.728C846.056 410.473 854.359 404.998 860.322 401.05Z"/><path fill="#FEFEFE" transform="scale(0.473558 0.473558)" d="M942.706 508.207C946.91 509.207 954.562 517.277 956.462 521.054C976.797 561.473 919.789 603.574 930.806 644.146C929.509 646.774 927.969 652.129 925.262 653.113L924.026 651.911C900.885 605.525 986.689 545.784 931.043 514.704L942.706 508.207Z"/><path fill="#FEFEFE" transform="scale(0.473558 0.473558)" d="M700.639 337.969C711.767 339.118 719.297 347.506 729.362 351.169C733.105 352.53 745.704 354.758 747.748 357.602C753.198 365.181 746 389.834 744.88 398.599C743.85 406.439 743.367 414.341 743.433 422.248C743.576 425.292 744.479 428.582 741.808 430.326C741.319 430.209 740.831 430.093 740.342 429.976C738.12 422.9 736.048 406.54 734.238 400.065C727.185 374.845 715.93 358.382 700.639 337.969Z"/><path fill="#FEFEFE" transform="scale(0.473558 0.473558)" d="M394.557 389.03C408.692 388.255 423.762 386.143 437.903 384.378C439.621 393.479 441.256 402.594 442.808 411.724C436.187 409.668 433.842 409.069 427.2 410.469L426.259 412.479C425.404 414.708 425.375 417.126 425.204 419.515C420.074 419.443 412.353 419.084 407.887 421.23L407.636 422.069C408.85 422.821 410.012 423.538 411.195 424.338C410.953 426.208 409.61 427.589 408.428 429.166C408.429 433.335 408.346 438.881 405.406 442.138L404.565 441.988C403.555 439.54 402.041 429.471 401.44 426.14C399.277 413.746 396.983 401.375 394.557 389.03Z"/><path fill="#D78264" transform="scale(0.473558 0.473558)" d="M405.088 414.971C412.913 412.863 419.239 411.824 427.2 410.469L426.259 412.479C419.285 412.743 412.556 414.819 405.088 414.971Z"/><path fill="#D78264" transform="scale(0.473558 0.473558)" d="M434.633 402.561L434.979 402.557L435.336 402.976C431.244 404.802 411.083 407.826 405.543 408.719C405.321 408.578 405.099 408.438 404.877 408.297C407.771 405.911 429.335 403.32 434.633 402.561Z"/><path fill="#D78264" transform="scale(0.473558 0.473558)" d="M432.075 396.442L433.876 396.451L433.913 397.057C428.535 398.656 412.167 400.627 405.981 401.472C405.034 401.693 405.072 401.623 404.141 401.291C406.624 399.42 427.773 396.927 432.075 396.442Z"/><path fill="#FEFEFE" transform="scale(0.473558 0.473558)" d="M294.88 491.443C327.001 493.964 359.108 496.676 391.197 499.577L431.001 503.303C434.564 503.67 443.729 503.182 445.645 505.89L445.427 507.123C442.207 508.755 408.875 505.059 402.742 504.542C372.34 502.047 341.961 499.274 311.61 496.224C303.57 504.227 299.775 508.389 311.63 515.304C315.803 516.456 335.254 518.127 340.337 518.65L408.477 525.787C415.499 526.475 441.149 527.18 445.237 531.292L445.055 532.287C441.605 533.842 429.683 531.825 425.379 531.404C412.687 530.204 400.007 528.88 387.341 527.432C356.636 523.876 325.883 520.736 295.093 518.014C294.897 509.158 294.826 500.301 294.88 491.443Z"/><path fill="#FEFEFE" transform="scale(0.473558 0.473558)" d="M295.045 520.435C311.711 521.72 329.498 523.937 346.23 525.702L446.537 536.167C446.664 538.833 447.119 542.302 447.398 545.022C396.531 540.821 345.928 533.613 295.354 528.881C295.097 526.389 295.108 523.013 295.045 520.435Z"/><path fill="#FEFEFE" transform="scale(0.473558 0.473558)" d="M298.363 455.316L299.843 455.312C299.707 456.635 299.498 456.779 298.935 458.009C299.904 459.934 301.846 460.021 304.151 461.462C309.211 464.626 312.798 468.154 317.85 471.536C323.881 470.992 328.846 469.75 334.669 468.269C344.074 471.295 344.733 470.822 348.532 461.768C357.311 467.185 366.677 475.076 374.767 481.649C364.922 481.486 350.33 479.807 340.182 478.935C312.836 474.863 275.805 473.438 247.43 470.811C264.224 465.979 281.598 460.435 298.363 455.316Z"/><path fill="#FEFEFE" transform="scale(0.473558 0.473558)" d="M898.923 437.093L901.622 436.469C904.548 438.359 903.041 445.412 903.732 449.549C891.085 454.438 877.088 460.013 864.217 464.242C863.111 465.021 862.861 464.917 861.519 465.043C854.693 464.814 836.141 461.318 830.401 457.555C827.247 455.635 824.608 453.654 821.649 451.474C824.977 450.573 828.973 449.258 832.346 449.322L832.606 447.86C843.1 443.549 850.531 447.092 861.771 449.432L862.859 449.448C874.056 446.353 887.75 441.098 898.923 437.093Z"/><path fill="#FEFEFE" transform="scale(0.473558 0.473558)" d="M832.606 447.86C843.1 443.549 850.531 447.092 861.771 449.432L862.859 449.448L863.392 450.672C866.311 451.122 867.22 449.769 869.712 450.09C867.155 451.204 863.963 452.343 862.734 454.848C863.745 455.226 863.706 455.259 864.775 455.263L866.151 455.991C864.049 456.733 863.379 456.812 862.163 458.625L862.234 459.889C863.248 460.589 863.214 460.708 864.415 460.772L865.022 461.345L863.772 462.961L864.217 464.242C863.111 465.021 862.861 464.917 861.519 465.043C854.693 464.814 836.141 461.318 830.401 457.555C827.247 455.635 824.608 453.654 821.649 451.474C824.977 450.573 828.973 449.258 832.346 449.322L832.606 447.86Z"/><path fill="#CC6445" transform="scale(0.473558 0.473558)" d="M861.771 449.432L862.859 449.448L863.392 450.672C866.311 451.122 867.22 449.769 869.712 450.09C867.155 451.204 863.963 452.343 862.734 454.848C863.745 455.226 863.706 455.259 864.775 455.263L866.151 455.991C864.049 456.733 863.379 456.812 862.163 458.625L862.234 459.889C863.248 460.589 863.214 460.708 864.415 460.772L865.022 461.345L863.772 462.961L864.217 464.242C863.111 465.021 862.861 464.917 861.519 465.043C854.693 464.814 836.141 461.318 830.401 457.555C832.558 456.328 834.131 456.015 836.447 457.031C840.892 457.136 859.063 461.441 859.732 461.273C860.282 459.106 860.207 459.95 859.582 457.666C857.867 456.714 851.239 455.356 848.327 454.403C851.614 454.665 855.967 455.479 859.117 455.069C858.512 453.885 857.797 453.978 856.163 453.317L855.421 452.034L859.016 452.313C861.19 451.317 860.426 451.944 861.771 449.432Z"/><defs><linearGradient id="gradient_0" gradientUnits="userSpaceOnUse" x1="846.67175" y1="458.60611" x2="846.10211" y2="461.52307"><stop offset="0" stop-color="#E9C6C1"/><stop offset="1" stop-color="white"/></linearGradient></defs><path fill="url(#gradient_0)" transform="scale(0.473558 0.473558)" d="M830.401 457.555C832.558 456.328 834.131 456.015 836.447 457.031L835.824 457.448C839.914 458.464 860.535 461.285 861.519 465.043C854.693 464.814 836.141 461.318 830.401 457.555Z"/><path fill="#FEFEFE" transform="scale(0.473558 0.473558)" d="M832.606 447.86C843.1 443.549 850.531 447.092 861.771 449.432C860.426 451.944 861.19 451.317 859.016 452.313L855.421 452.034C849.459 450.272 838.009 449.653 832.606 447.86Z"/><path fill="#E4B2A2" transform="scale(0.473558 0.473558)" d="M832.346 449.322L832.606 447.86C838.009 449.653 849.459 450.272 855.421 452.034L856.163 453.317C847.345 451.199 840.449 450.934 832.346 449.322Z"/><path fill="#E4B2A2" transform="scale(0.473558 0.473558)" d="M829.497 452.48C833.953 451.776 841.68 453.309 846.57 453.863C842.372 454.383 833.542 453.954 829.497 452.48Z"/><path fill="#FEFEFE" transform="scale(0.473558 0.473558)" d="M862.859 449.448C874.056 446.353 887.75 441.098 898.923 437.093L900.84 438.89L900.416 439.666L899.564 439.725C892.314 442.695 884.947 444.394 878.429 446.99C876.72 447.938 871.478 450.152 869.712 450.09C867.22 449.769 866.311 451.122 863.392 450.672L862.859 449.448Z"/><path fill="#D78264" transform="scale(0.473558 0.473558)" d="M878.429 446.99L878.686 446.463C881.4 444.516 895.985 439.486 899.564 439.725C892.314 442.695 884.947 444.394 878.429 446.99Z"/><path fill="#DC987F" transform="scale(0.473558 0.473558)" d="M864.775 455.263C869.885 453.515 896.441 443.501 899.527 443.583C892.768 447.241 874.195 453.002 866.151 455.991L864.775 455.263Z"/><path fill="#DC987F" transform="scale(0.473558 0.473558)" d="M864.415 460.772C872.929 456.489 887.604 451.624 896.703 448.665C892.219 452.303 872.317 458.243 865.022 461.345L864.415 460.772Z"/><path fill="#FEFEFE" transform="scale(0.473558 0.473558)" d="M791.297 412.801C810.396 410.339 832.957 422.508 850.316 430.338C838.726 430.394 836.909 430.299 826.162 434.355C824.589 435 817.904 437.733 816.924 437.932C805.025 440.34 779.191 425.523 769.423 420.109C775.393 417.166 784.762 413.884 791.297 412.801Z"/><path fill="#FEFEFE" transform="scale(0.473558 0.473558)" d="M744.519 441.536C745.477 441.422 746.439 441.343 747.403 441.298C760.945 440.677 767.916 442.446 778.316 451.848C784.494 457.433 790.767 463.151 796.914 468.782C789.764 467.017 787.388 466.027 779.846 466.558C770.909 467.755 766.213 468.694 757.708 471.619C747.922 462.609 738.353 453.366 729.009 443.899C734.061 442.777 739.375 442.203 744.519 441.536Z"/><path fill="#D78264" transform="scale(0.473558 0.473558)" d="M765.765 457.999C769.731 457.438 778.314 457.592 782.388 457.795C778.13 458.649 773.467 458.991 769.12 459.417C764.474 459.634 759.22 460.733 754.673 460.36C756.431 458.544 763.089 458.234 765.765 457.999Z"/><path fill="#D78264" transform="scale(0.473558 0.473558)" d="M776.108 461.662C778.9 461.381 779.564 461.34 782.424 461.647L782.145 462.1C779.2 463.179 769.427 463.672 765.852 463.951C763.665 464.387 761.86 464.536 759.66 464.741L759.258 464.351C765.794 462.253 769.382 462.107 776.108 461.662Z"/><path fill="#D78264" transform="scale(0.473558 0.473558)" d="M756.928 453.646C761.954 453.208 767.007 453.175 772.038 453.55L772.19 453.931L767.355 454.536C763.218 454.678 754.456 455.835 751.04 455.416C752.253 454.359 755.2 454.001 756.928 453.646Z"/><path fill="#CC6445" transform="scale(0.473558 0.473558)" d="M746.938 445.164C752.66 444.846 757.286 444.695 763.039 445.595L762.745 446.075L759.433 446.185C755.532 446.333 744.88 446.939 741.521 446.328C743.13 445.381 745.027 445.375 746.938 445.164Z"/><path fill="#DC987F" transform="scale(0.473558 0.473558)" d="M751.07 449.522L751.478 449.477L751.766 449.882C749.605 450.875 746.54 451.347 744.125 451.835L743.018 451.495L743.587 450.76C746.586 449.765 747.934 449.753 751.07 449.522Z"/><path fill="#DC987F" transform="scale(0.473558 0.473558)" d="M763.032 449.529C765.482 449.232 767.474 448.85 769.916 449.34L769.932 450.221C767.357 450.469 765.441 450.801 762.901 450.263L763.032 449.529Z"/><path fill="#FEFEFE" transform="scale(0.473558 0.473558)" d="M263.934 488.717L291.953 490.975C291.969 503.435 292.385 515.941 292.393 528.482C284.725 527.048 272.636 526.509 264.509 525.99L263.934 488.717Z"/><path fill="#C45539" transform="scale(0.473558 0.473558)" d="M269.753 494.286C274.406 494.291 279.894 494.822 284.595 495.156L284.697 521.244C280.06 520.934 274.718 520.248 270.043 519.749L269.753 494.286Z"/><path fill="#FEFEFE" transform="scale(0.473558 0.473558)" d="M272.284 496.676L282.191 497.508C282.198 504.472 282.424 511.65 282.558 518.63L272.405 517.341L272.284 496.676Z"/><path fill="#FEFEFE" transform="scale(0.473558 0.473558)" d="M815.185 527.182C815.821 527.295 815.808 527.422 816.409 527.849C817.858 533.813 817.143 564.509 817.083 572.432C809.921 575.915 803.332 579.177 796.319 583.003C795.706 582.969 795.965 582.964 795.31 582.365C794.322 567.896 794.96 549.73 794.779 534.735C802.663 534.428 808.28 530.82 815.185 527.182Z"/><path fill="#CC6445" transform="scale(0.473558 0.473558)" d="M810.532 533.894L811.481 534.647C813.121 538.334 812.403 560.703 812.359 566.017C808.108 568.447 805.452 569.788 800.969 571.753C797.45 568.782 798.941 545.132 799.092 539.589C802.49 537.632 806.941 535.629 810.532 533.894Z"/><path fill="#FEFEFE" transform="scale(0.473558 0.473558)" d="M808.508 537.59L809.031 538.119C810.704 542.246 809.95 559.16 809.86 564.531L802.799 568.314C800.734 566.195 801.429 545.447 801.455 541.202L808.508 537.59Z"/><path fill="#FEFEFE" transform="scale(0.473558 0.473558)" d="M644.939 458.323C650.762 455.786 656.422 455.466 661.887 458.987C662.717 461.139 662.747 460.32 662.188 462.304C660.482 463.322 660.337 463.295 658.329 463.598L658.491 465.726C661.639 467.551 662.624 468.819 666.169 469.85C667.933 474.954 671.425 483.802 668.793 488.397C663.202 498.159 636.335 496.694 633.863 484.277C633.087 480.378 633.851 475.263 635.797 471.765C637.144 469.321 641.591 468.369 643.944 466.474L642.637 462.856L642.24 461.077C643.05 458.952 642.576 459.688 644.939 458.323Z"/><path fill="#FEFEFE" transform="scale(0.473558 0.473558)" d="M644.939 458.323C650.762 455.786 656.422 455.466 661.887 458.987C662.717 461.139 662.747 460.32 662.188 462.304C660.482 463.322 660.337 463.295 658.329 463.598L658.491 465.726C655.653 465.68 645.939 465.157 643.944 466.474L642.637 462.856L642.24 461.077C643.05 458.952 642.576 459.688 644.939 458.323Z"/><path fill="#CC6445" transform="scale(0.473558 0.473558)" d="M644.939 458.323C650.762 455.786 656.422 455.466 661.887 458.987L660.66 459.943C656.397 461.726 648.389 462.952 645.146 458.899L644.939 458.323Z"/><path fill="#FEFEFE" transform="scale(0.473558 0.473558)" d="M644.939 458.323C650.762 455.786 656.422 455.466 661.887 458.987L660.66 459.943C657.24 457.359 648.963 457.688 645.146 458.899L644.939 458.323Z"/><path fill="#D78264" transform="scale(0.473558 0.473558)" d="M642.637 462.856C649.003 464.424 651.86 464.199 658.329 463.598L658.491 465.726C655.653 465.68 645.939 465.157 643.944 466.474L642.637 462.856Z"/><path fill="#CC6445" transform="scale(0.473558 0.473558)" d="M638.106 474.351C647.862 476.064 653.222 475.614 663.209 475.271C663.581 480.216 663.655 485.273 662.774 490.16C653.895 491.379 646.513 490.899 637.829 489.132C637.534 483.497 637.728 479.998 638.106 474.351Z"/><path fill="#FEFEFE" transform="scale(0.473558 0.473558)" d="M639.674 476.586C648.397 478.212 652.361 477.963 661.137 477.633L661.126 487.964C652.059 488.73 648.752 488.6 639.787 487.294L639.674 476.586Z"/><path fill="#FEFEFE" transform="scale(0.473558 0.473558)" d="M391.377 392.422C394.95 397.171 397.854 429.841 400.488 438.06C401.111 440.005 402.424 448.429 402.59 450.84L401.791 452.031L400.695 452.079C399.336 450.498 399.178 449.961 398.372 448.018C398.362 449.61 398.596 451.357 397.695 452.568L395.893 452.566L393.286 452.626L391.513 451.759L389.816 449.22L388.832 449.322L388.049 449.151C386.221 445.152 383.016 423.765 382.531 418.54C381.346 414.937 378.731 398.056 378.71 394.399C379.652 393.871 383.752 394.403 385.225 394.479C387.252 396.155 387.652 405.024 388.46 408.127C388.256 405.27 387.123 396.446 388.123 394.708L389.416 395.02L390.389 394.984L391.377 392.422Z"/><path fill="#E5C8C3" transform="scale(0.473558 0.473558)" d="M382.531 418.54C381.346 414.937 378.731 398.056 378.71 394.399C379.652 393.871 383.752 394.403 385.225 394.479C381.966 397.665 388.871 414.438 387.116 418.127C386.227 416.834 385.32 415.553 384.396 414.284C382.976 409.721 382.444 403.668 380.934 399.49C381.012 406.007 382.57 412.201 383.322 418.667L382.531 418.54Z"/><path fill="#D78264" transform="scale(0.473558 0.473558)" d="M380.934 399.49C382.444 403.668 382.976 409.721 384.396 414.284C385.489 426.725 388.78 438.047 389.816 449.22L388.832 449.322L388.049 449.151C386.221 445.152 383.016 423.765 382.531 418.54L383.322 418.667C382.57 412.201 381.012 406.007 380.934 399.49Z"/><path fill="#E5C8C3" transform="scale(0.473558 0.473558)" d="M382.531 418.54L383.322 418.667C384.707 426.253 388.126 442.234 388.832 449.322L388.049 449.151C386.221 445.152 383.016 423.765 382.531 418.54Z"/><path fill="#DC987F" transform="scale(0.473558 0.473558)" d="M395.893 452.566C394.828 447.946 389.419 422.609 390.445 419.394C394.149 429 393.694 445.43 397.695 452.568L395.893 452.566Z"/><path fill="#E4B2A2" transform="scale(0.473558 0.473558)" d="M391.513 451.759C392.433 447.112 388.907 437.893 388.629 432.22C390.558 435.852 393.138 448.447 393.286 452.626L391.513 451.759Z"/><path fill="#E4B2A2" transform="scale(0.473558 0.473558)" d="M389.416 395.02L390.389 394.984L391.377 392.422C390.909 397.377 391.619 401.023 392.251 405.923C390.793 401.516 390.237 399.611 389.416 395.02Z"/><path fill="#CC6445" transform="scale(0.473558 0.473558)" d="M392.396 410.624C394.952 414.476 397.758 433.394 397.956 438.47C394.626 432.846 393.243 417.768 392.396 410.624Z"/><path fill="#FEFEFE" transform="scale(0.473558 0.473558)" d="M922.614 508.829L923.971 509.167C924.599 510.507 925.234 512.254 924.703 513.726C923.457 517.18 833.124 564.082 821.677 570.142C821.066 570.277 821.229 570.166 820.436 569.847C819.535 567.195 819.832 564.95 819.954 562.151C854.612 545.233 888.842 527.454 922.614 508.829Z"/><path fill="#FEFEFE" transform="scale(0.473558 0.473558)" d="M781.138 441.179C782.871 442.157 789.423 445.349 789.885 446.43L788.241 447.57L788.447 447.918L793.558 448.037L795.944 449.384C798.947 450.857 803.211 452.789 805.908 454.582C806.617 455.378 807.042 455.988 807.993 456.478C812.169 455.146 815.668 454.05 819.729 452.324C824.389 456.171 828.952 460.099 833.998 463.424L834.816 464.196L833.586 465.554C835.713 466.688 835.392 466.097 836.126 467.876C834.278 471.276 828.347 471.502 825.346 469.619C828.632 467.998 831.145 469.405 832.706 467.767C831.41 467.561 815.32 469.162 812.812 469.491C810.216 469.831 808.384 472.582 802.487 472.644L801.629 472.216C801.068 470.544 801.089 470.567 800.074 469.133C798.27 466.08 777.065 447.936 773.201 444.774C775.729 443.008 778.25 442.244 781.138 441.179Z"/><path fill="#FEFEFE" transform="scale(0.473558 0.473558)" d="M802.487 472.644C803.41 462.936 826.805 465.253 833.586 465.554C835.713 466.688 835.392 466.097 836.126 467.876C834.278 471.276 828.347 471.502 825.346 469.619C828.632 467.998 831.145 469.405 832.706 467.767C831.41 467.561 815.32 469.162 812.812 469.491C810.216 469.831 808.384 472.582 802.487 472.644Z"/><path fill="#CC6445" transform="scale(0.473558 0.473558)" d="M800.074 469.133C812.876 459.695 819.727 463.248 833.998 463.424L834.816 464.196L833.586 465.554C826.805 465.253 803.41 462.936 802.487 472.644L801.629 472.216C801.068 470.544 801.089 470.567 800.074 469.133Z"/><path fill="#CC6445" transform="scale(0.473558 0.473558)" d="M805.908 454.582C806.617 455.378 807.042 455.988 807.993 456.478C804.098 457.565 800.063 458.186 796.077 458.883C799.205 457.229 802.623 455.922 805.908 454.582Z"/><path fill="#E4B2A2" transform="scale(0.473558 0.473558)" d="M793.558 448.037L795.944 449.384C792.529 451.535 792.491 451.599 788.397 452.29C789.057 451.451 792.217 450.143 793.761 449.023L793.558 448.037Z"/><path fill="#D78264" transform="scale(0.473558 0.473558)" d="M817.865 458.202L818.175 458.605C812.491 460.023 807.017 461.079 801.536 463.16L801.065 462.747L801.493 461.799L801.28 462.182C804.542 458.898 813.399 458.34 817.865 458.202Z"/><path fill="#DC987F" transform="scale(0.473558 0.473558)" d="M798.11 452.31L799.12 452.385L799.385 453.032C797.44 454.284 795.545 454.621 793.302 455.225L792.564 454.912C793.704 453.528 796.269 452.944 798.11 452.31Z"/><path fill="#FEFEFE" transform="scale(0.473558 0.473558)" d="M695.295 329.666C712.875 330.395 719.458 337.569 734.521 344.48C739.716 346.864 749.565 346.279 754.272 351.326C764.329 362.109 755.569 378.693 753.951 391.098C751.793 404.936 751.649 417.271 751.902 431.054C750.159 431.049 749.591 430.954 747.862 430.654C738.773 421.978 757.383 366.745 751.331 357.459C747.505 351.588 735.418 350.934 729.219 348.222C717.949 343.292 711.527 337.388 698.806 334.757C697.698 333.415 696.304 331.173 695.295 329.666Z"/><path fill="#FEFEFE" transform="scale(0.473558 0.473558)" d="M769.397 423.915L770.011 422.888C778.292 424.77 803.452 441.055 813.228 440.685C819.694 440.44 838.23 430.374 844.891 432.974L845.188 433.721C842.973 434.98 842.613 435.502 840.991 437.392C843.098 436.858 847.001 435.674 848.991 435.832L848.655 436.031L848.293 435.679C847.503 436.88 830.197 443.022 827.413 444.082C825.436 445.301 823.235 446.066 821.008 446.715C818.013 448.136 813.185 449.691 809.939 450.843C802.254 446.71 794.526 442.658 786.755 438.688C780.627 435.728 774.464 433.235 768.276 430.131L768.268 429.458L767.704 429.725L767.319 429.192L767.928 428.773L768.504 429.361L768.738 428.88L769.325 429.169L769.487 428.588C767.945 427.528 768.43 428.111 767.837 426.085L769.397 423.915Z"/><path fill="#E4B2A2" transform="scale(0.473558 0.473558)" d="M821.008 446.715C817.152 445.721 815.284 448.716 812.553 448.168C813.403 446.749 827.402 440.525 829.269 441.715L827.413 444.082C825.436 445.301 823.235 446.066 821.008 446.715Z"/><path fill="#DC987F" transform="scale(0.473558 0.473558)" d="M840.991 437.392L840.588 437.511L839.981 437.303L839.536 437.562L840.755 436.127C836.75 435.711 820.843 442.047 815.805 443.715L815.605 443.482C826.617 438.038 833.162 436.358 845.188 433.721C842.973 434.98 842.613 435.502 840.991 437.392Z"/><path fill="#FEFEFE" transform="scale(0.473558 0.473558)" d="M786.755 438.688C780.627 435.728 774.464 433.235 768.276 430.131L768.268 429.458L767.704 429.725L767.319 429.192L767.928 428.773L768.504 429.361L768.738 428.88L769.325 429.169C772.896 431.042 784.778 436.567 788.468 437.124L786.755 438.688Z"/><path fill="#E4B2A2" transform="scale(0.473558 0.473558)" d="M769.487 428.588C773.87 430.098 785.147 434.309 788.468 437.124C784.778 436.567 772.896 431.042 769.325 429.169L769.487 428.588Z"/><path fill="#E4B2A2" transform="scale(0.473558 0.473558)" d="M769.397 423.915C771.167 426.149 775.349 427.115 778.1 429.43C775.284 428.326 770.651 426.22 767.837 426.085L769.397 423.915Z"/><path fill="#E4B2A2" transform="scale(0.473558 0.473558)" d="M785.524 432.741C787.395 432.394 799.706 439.002 801.981 440.358L802.085 441.404C799.109 439.878 787.038 434.499 785.524 432.741Z"/><path fill="#FEFEFE" transform="scale(0.473558 0.473558)" d="M941.418 465.087C943.596 468.135 942.329 498.959 942.203 505.183C937.75 507.707 933.151 510.177 928.659 512.65C926.45 510.299 927.453 477.531 927.498 471.905L941.418 465.087Z"/><path fill="#CC6445" transform="scale(0.473558 0.473558)" d="M937.984 471.015C938.251 471.11 938.983 471.69 939.251 471.887C940.975 477.109 940.346 491.88 940.285 498.055C937.799 499.743 934.606 501.587 932.002 503.187C928.924 499.894 930.304 480.764 930.46 475.34L937.984 471.015Z"/><path fill="#FEFEFE" transform="scale(0.473558 0.473558)" d="M936.175 474.576C939.099 477.445 938.165 488.939 937.685 492.86C937.252 496.403 936.886 497.373 934.046 499.524C932.168 497.177 931.876 488.119 932.26 485.09C932.914 479.939 932.332 477.849 936.175 474.576Z"/><path fill="#FEFEFE" transform="scale(0.473558 0.473558)" d="M371.686 385.953C372.083 385.986 373.118 386.285 373.561 386.399C376.266 391.696 375.71 399.799 376.788 405.491C379.211 418.278 383.564 436.457 384.217 449.188C383.453 450.799 383.222 450.436 381.068 451.408C379.387 450.843 379.194 450.737 377.687 449.781C376.316 446.768 366.838 391.854 366.906 387.603C368.152 386.218 369.73 386.267 371.686 385.953Z"/><path fill="#FEFEFE" transform="scale(0.473558 0.473558)" d="M730.81 452.14C728.812 449.544 728.375 448.933 727.036 445.964C736.312 452.509 748.504 465.167 757.042 473.499C769.07 469.668 783.906 465.568 796.102 471.695C796.926 472.109 797.055 472.305 797.481 473.068C794.928 475.685 785.782 474.07 781.851 474.324C772.195 474.948 763.09 477.157 753.802 479.731C748.623 473.658 727.867 456.086 726.341 450.872C727.923 450.645 728.627 451.38 729.899 452.435L730.81 452.14Z"/><path fill="#D78264" transform="scale(0.473558 0.473558)" d="M737.27 458.327C743.431 464.151 750.051 469.937 754.986 476.795C748.367 471.866 742.742 464.379 736.734 459.102L737.27 458.327Z"/><path fill="#E4B2A2" transform="scale(0.473558 0.473558)" d="M730.81 452.14C733.364 454.249 734.968 455.923 737.27 458.327L736.734 459.102C734.276 456.854 732.222 454.825 729.899 452.435L730.81 452.14Z"/><path fill="#DC987F" transform="scale(0.473558 0.473558)" d="M782.204 470.218C785.973 469.786 792.969 471.88 796.773 472.906C788.109 472.886 780.582 471.787 771.823 473.105C769.321 473.863 764.208 475.617 761.694 475.072C763.778 472.859 778.527 470.434 782.204 470.218Z"/><path fill="#FEFEFE" transform="scale(0.473558 0.473558)" d="M758.699 584.471C768.614 592.216 765.948 606.686 766.707 618.144C767.466 629.498 768.981 640.789 771.242 651.941C768.754 651.776 766.754 651.971 765.089 650.411C759.574 635.358 758.132 600.661 758.699 584.471Z"/><path fill="#FEFEFE" transform="scale(0.473558 0.473558)" d="M808.077 722.403C825.76 722.744 829.11 742.74 818.8 754.007C817.27 755.678 814.918 757.1 813.007 758.324C811.89 758.708 811.867 758.608 810.671 758.465C809.97 754.007 815.891 747.1 812.874 738.594C810.015 730.534 807.287 728.806 800.042 724.649C802.629 723.789 805.428 723.104 808.077 722.403Z"/><path fill="#FEFEFE" transform="scale(0.473558 0.473558)" d="M886.941 409.683C890.368 410.477 892.497 411.118 895.828 412.273L896.268 413.586L897.54 415.316L898.723 417.621L899.644 417.928C893.515 422.625 870.954 428.967 868.373 432.212C872.517 431.972 877.115 428.311 880.81 427.912L880.826 428.478C874.568 431.854 864.295 436.053 857.586 438.923C859.97 437.204 867.454 430.815 869.115 429.966L868.335 429.397L868.185 428.045L868.933 427.285L868.109 426.321C866.807 427.297 865.555 428.479 863.994 428.734C868.693 420.939 879.161 414.203 886.941 409.683Z"/><path fill="#FEFEFE" transform="scale(0.473558 0.473558)" d="M886.941 409.683C890.368 410.477 892.497 411.118 895.828 412.273L896.268 413.586C888.122 417.091 875.986 422.166 868.933 427.285L868.109 426.321C866.807 427.297 865.555 428.479 863.994 428.734C868.693 420.939 879.161 414.203 886.941 409.683Z"/><path fill="#D78264" transform="scale(0.473558 0.473558)" d="M895.828 412.273L896.268 413.586C888.122 417.091 875.986 422.166 868.933 427.285L868.109 426.321C875.158 420.45 887.289 415.758 895.828 412.273Z"/><path fill="#FEFEFE" transform="scale(0.473558 0.473558)" d="M898.723 417.621L899.644 417.928C893.515 422.625 870.954 428.967 868.373 432.212C872.517 431.972 877.115 428.311 880.81 427.912L880.826 428.478C874.568 431.854 864.295 436.053 857.586 438.923C859.97 437.204 867.454 430.815 869.115 429.966C875.425 426.795 892.042 418.798 898.723 417.621Z"/><path fill="#D78264" transform="scale(0.473558 0.473558)" d="M897.54 415.316L898.723 417.621C892.042 418.798 875.425 426.795 869.115 429.966L868.335 429.397L868.185 428.045C870.484 428.504 894.054 417.288 897.54 415.316Z"/><path fill="#FEFEFE" transform="scale(0.473558 0.473558)" d="M438.438 547.521L447.737 548.548C448.942 566.018 450.512 578.217 446.21 595.351C446.009 595.957 445.601 596.504 445.255 597.062L444.477 596.717C443.648 594.464 443.669 592.3 443.523 589.928C442.645 575.695 439.719 561.723 438.438 547.521Z"/><path fill="#FEFEFE" transform="scale(0.473558 0.473558)" d="M885.431 429.663C888.338 429.21 900.553 431.534 904.375 432.114C895.467 435.179 872.644 444.044 865.451 445.467C858.163 445.903 854.199 445.009 847.384 443.15C851.11 441.884 859.916 441.409 861.042 440.791C868.642 436.614 877.469 432.874 885.431 429.663Z"/><path fill="#E5C8C3" transform="scale(0.473558 0.473558)" d="M350.557 438.386C350.57 435.899 348.372 432.403 346.697 430.597C347.659 429.768 347.089 430.062 348.567 429.961C346.724 429.277 346.319 429.49 345.349 428.194C347.491 426.996 362.431 428.688 365.653 429.392C370.505 430.452 372.388 434.684 372.199 439.403L372.278 440.689C370.845 441.623 367.593 441.489 365.583 441.61C367.086 442.1 368.933 442.54 370.169 443.396C365.077 443.794 353.548 442.923 350.557 438.386Z"/><path fill="#FEFEFE" transform="scale(0.473558 0.473558)" d="M350.557 438.386C353.742 436.14 368.065 438.221 372.199 439.403L372.278 440.689C370.845 441.623 367.593 441.489 365.583 441.61C367.086 442.1 368.933 442.54 370.169 443.396C365.077 443.794 353.548 442.923 350.557 438.386Z"/><path fill="#FEFEFE" transform="scale(0.473558 0.473558)" d="M724.624 578.18C725.634 578.697 725.859 579.029 726.661 579.824C729.244 586.595 727.959 620.71 726.766 629.041L725.959 629.275C721.291 612.359 717.804 594.921 724.624 578.18Z"/><path fill="#FEFEFE" transform="scale(0.473558 0.473558)" d="M483.446 418.628L494.628 418.784C495.197 429.27 497.362 428.854 506.659 430.811C502.228 432.344 500.108 433.027 495.394 433.91C487.2 435.125 480.223 433.706 472.223 432.247C481.2 428.793 483.484 429.044 483.446 418.628Z"/><path fill="#FEFEFE" transform="scale(0.473558 0.473558)" d="M577.697 632.55C579.714 632.501 583.409 632.353 584.292 634.489C587.679 642.682 582.772 659.112 580.921 667.063C579.042 667.214 576.194 666.32 574.26 665.843C576.68 652.807 577.329 645.795 577.697 632.55Z"/><path fill="#FEFEFE" transform="scale(0.473558 0.473558)" d="M716.215 652.878C717.396 652.731 717.959 652.834 719.116 652.95C719.8 654.122 722.408 680.76 721.712 682.284L718.879 683.011C717.383 682.355 715.997 682.021 715.35 679.838C713.23 672.68 711.223 661.384 712.103 654.013C712.166 653.486 715.316 653.061 716.215 652.878Z"/><path fill="#FEFEFE" transform="scale(0.473558 0.473558)" d="M421.391 380.02C423.127 379.634 423.567 380.156 424.698 381.15L424.42 382.133C418.055 384.885 400.716 386.013 393.486 386.616C388.858 390.383 388.138 391.099 382.329 391.941C379.861 391.232 378.441 390.911 377.295 388.577L377.877 387.21C383.789 383.038 412.658 380.834 421.391 380.02Z"/><path fill="#FEFEFE" transform="scale(0.473558 0.473558)" d="M466.266 398.188C471.208 399.26 473.255 400.275 474.658 405.42L474.316 406.016C471.254 403.465 468.3 400.261 464.356 400.443C458.933 403.905 461.199 413.637 464.078 418.416C465.102 418.676 469.555 419.538 470.032 419.766C473.082 419.964 477.641 420.002 480.331 421.126L481.171 422.099C480.643 424.265 480.733 423.642 478.851 425.459L477.021 427.858C468.276 427.82 463.157 420.876 459.704 413.673C457.083 405.975 459.426 401.857 466.266 398.188Z"/><path fill="#CC6445" transform="scale(0.473558 0.473558)" d="M464.078 418.416C465.102 418.676 469.555 419.538 470.032 419.766C473.082 419.964 477.641 420.002 480.331 421.126L481.171 422.099C480.643 424.265 480.733 423.642 478.851 425.459L477.021 427.858C471.662 423.892 469.865 426.203 464.078 418.416Z"/><path fill="#FEFEFE" transform="scale(0.473558 0.473558)" d="M470.032 419.766C473.082 419.964 477.641 420.002 480.331 421.126L481.171 422.099C480.643 424.265 480.733 423.642 478.851 425.459C475.977 424.204 471.22 422.615 470.032 419.766Z"/><path fill="#FEFEFE" transform="scale(0.473558 0.473558)" d="M768.95 602.576C775.379 607.198 775.185 641.443 774.194 648.73L773.421 648.513C770.273 643.032 769.044 610.779 768.95 602.576Z"/><path fill="#FEFEFE" transform="scale(0.473558 0.473558)" d="M718.613 454.158C720.968 455.041 733.693 467.919 736.336 470.539C733.453 469.139 730.122 467.836 727.137 466.592C720.067 463.949 714.026 461.543 707.247 458.288L718.613 454.158Z"/><path fill="#FEFEFE" transform="scale(0.473558 0.473558)" d="M606.496 426.528C612.013 427.703 623.965 427.822 630.098 428.001L624.401 433.406C622.003 434.47 606.183 432.883 602.378 432.619L606.496 426.528Z"/><path fill="#FEFEFE" transform="scale(0.473558 0.473558)" d="M725.666 648.33C727.24 649.879 727.151 653.325 727.183 655.548C727.299 663.606 728.487 671.834 728.079 679.856C728.079 679.856 726.46 681.666 726.296 681.85C723.103 679.201 722.579 658.866 722.644 654.022C722.685 650.95 723.509 650.259 725.666 648.33Z"/><path fill="#FEFEFE" transform="scale(0.473558 0.473558)" d="M466.353 402.564C469.564 404.157 476.8 412.822 476.72 416.337L475.413 416.957C464.105 417.171 459.412 412.522 466.353 402.564Z"/><path fill="#FEFEFE" transform="scale(0.473558 0.473558)" d="M588 636.811C590.418 638.808 591.121 640.558 592.592 643.323C591.273 652.103 590.474 657.699 587.566 666.005C586.534 666.403 586.095 666.4 585.004 666.54C584.512 665.514 587.588 640.761 588 636.811Z"/><path fill="#FEFEFE" transform="scale(0.473558 0.473558)" d="M638.744 461.25L639.953 461.904C641.541 466.088 635.137 467.363 632.083 474.612L621.101 473.377L619.228 472.644C620.463 470.355 635.152 463.264 638.744 461.25Z"/><path fill="#E5C8C3" transform="scale(0.473558 0.473558)" d="M722.291 453.4C727.41 455.501 748.586 477.198 753.541 482.192C761.011 480.842 783.758 476.13 789.943 477.674C784.326 479.657 761.414 481.775 753.114 483.61C745.525 475.734 727.557 460.157 722.291 453.4Z"/><path fill="#FEFEFE" transform="scale(0.473558 0.473558)" d="M508.166 431.476L509.296 432.309C510.094 434.196 510.135 433.327 509.486 435.001C502.314 440.685 478.191 440.634 470.103 435.768C469.392 434.368 469.567 435.112 469.717 433.43C472.206 432.069 476.768 436.712 480.932 436.879C491.32 437.297 499.704 438.241 508.166 431.476Z"/><path fill="#FEFEFE" transform="scale(0.473558 0.473558)" d="M365.69 419.465C367.779 419.143 367.003 418.995 368.882 419.747C370.376 421.713 370.553 424.953 370.929 427.489C366.162 427.065 361.12 426.419 356.338 425.889L346.888 424.825C353.285 422.535 359.098 421.097 365.69 419.465Z"/><path fill="#FEFEFE" transform="scale(0.473558 0.473558)" d="M528.418 614.187C533.308 614.991 536.259 620.812 533.577 625C531.477 626.103 532.423 625.873 529.9 625.711L522.097 624.997C523.938 619.175 523.939 618.399 528.418 614.187Z"/><path fill="#FEFEFE" transform="scale(0.473558 0.473558)" d="M445.319 630.165C449.881 630.287 457.268 630.593 460.985 633.061C462.056 634.972 461.89 634.077 461.277 636.558C452.75 639.624 448.987 638.828 445.319 630.165Z"/><path fill="#FEFEFE" transform="scale(0.473558 0.473558)" d="M477.398 409.218C479.151 409.569 480.585 411.787 483.705 412.508C489.09 413.752 494.424 414.467 499.414 411.578C499.269 410.607 499.232 410.421 499.274 409.445C500.707 410.01 500.959 410.805 501.758 412.149C496.531 417.273 483.911 417.631 478.163 412.634C476.905 411.54 477.296 410.776 477.398 409.218Z"/><path fill="#E5C8C3" transform="scale(0.473558 0.473558)" d="M905.311 450.984L906.539 451.144C905.188 453.182 865.498 467.463 861.189 469.032L859.573 467.808C864.807 466.771 873.607 463.125 878.768 461.139L905.311 450.984Z"/><path fill="#E4B2A2" transform="scale(0.473558 0.473558)" d="M833.035 472.669C834.435 472.315 835.282 472.486 836.705 472.604L836.364 473.122C832.817 473.981 817.708 475.181 813.476 475.575C811.128 475.681 810.599 475.671 808.297 475.23C811.817 473.345 828.03 472.945 833.035 472.669Z"/><path fill="#FEFEFE" transform="scale(0.473558 0.473558)" d="M404.765 445.403C407.02 445.45 411.829 446.046 413.151 447.992L412.407 449.047C410.43 449.819 408.478 450.804 406.51 450.287C404.78 448.332 405.256 448.376 404.765 445.403Z"/><path fill="#CC6445" transform="scale(0.473558 0.473558)" d="M480.98 351.768C479.52 347.932 479.548 346.2 481.276 342.189C485.701 331.92 487.488 332.408 486.952 321.209C491.833 329.357 494.523 338.156 497.664 347.103C496.775 349.515 495.985 352.13 494.501 354.199C492.983 356.108 491.32 358.096 489.971 360.112C491.938 360.373 494.972 360.595 496.667 361.395C502.966 366.838 498.115 389.112 497.776 396.658C496.616 399.239 496.551 399.879 496.106 402.627L495.815 410.697C491.366 410.802 486.966 410.971 482.52 410.746C481.446 409.838 481.948 410.278 481.473 409.168C479.912 405.515 478.621 407.46 477.894 402.92L480.147 405.042C483.339 401.727 474.979 368.323 479.923 360.292C482.365 359.213 483.69 360.53 486.973 359.855L487.219 358.925C486.176 356.68 482.911 353.868 480.98 351.768Z"/><path fill="#FEFEFE" transform="scale(0.473558 0.473558)" d="M480.761 362.182C484.719 361.45 485.791 363.146 489.568 364.72C491.379 364.289 494.848 363.554 496.439 362.956C496.59 367.397 497.572 381.562 496.815 384.981L496.28 384.825C495.075 380.55 494.947 373.594 492.34 371.205L491.452 371.647C490.858 373.441 490.358 373.98 490.709 375.651L492.24 373.294L492.773 373.33C493.879 385.656 496.053 389.788 496.106 402.627L495.815 410.697C491.366 410.802 486.966 410.971 482.52 410.746C481.399 396.686 484.929 387.664 484.357 374.202L484.03 373.917C483.59 376.276 482.872 381.417 481.75 383.203C479.896 381.027 480.643 365.805 480.761 362.182Z"/><path fill="#FEFEFE" transform="scale(0.473558 0.473558)" d="M482.834 350.932C481.179 343.081 485.188 337.47 489.155 330.643C493.434 339.703 495.975 344.242 492.97 354.072C491.557 354.92 492.283 354.799 490.746 354.568L489.23 352.411L487.422 352.754L486.461 354.119C484.552 353.842 484.385 352.851 482.834 350.932Z"/><path fill="#D78264" transform="scale(0.473558 0.473558)" d="M487.422 352.754C487.335 350.093 487.238 349.273 487.933 346.606C488.881 347.669 489.023 350.807 489.23 352.411L487.422 352.754Z"/></svg>