<?xml version="1.0" encoding="utf-8" ?><svg xmlns="http://www.w3.org/2000/svg" xmlns:xlink="http://www.w3.org/1999/xlink" width="591" height="394" viewBox="0 0 591 394"><path fill="#BB5035" transform="scale(0.473558 0.473558)" d="M465.005 47.6621C472.328 47.7601 479.098 50.0483 485.723 52.996C513.122 65.1865 539.549 80.0683 566.213 93.7699C581.074 101.406 612.621 115.621 624.323 125.578C639.463 138.461 687.752 220.601 698.744 241.649C704.921 253.318 710.348 265.369 714.993 277.729C746.285 280.224 812.012 294.277 838.031 309.881C841.359 311.876 846.381 315.159 847.184 319.27C847.56 321.199 846.881 322.956 845.684 324.464C833.658 339.62 756.636 345.885 734.967 347.873C746.448 409.541 719.867 456.658 722.293 515.882C735.133 508.46 748.758 502.551 763.566 500.794C767.263 502.861 774.604 508.121 778.33 510.621C781.206 509.096 783.547 507.509 786.222 509.855C788.72 516.893 779.932 554.154 777.724 563.354C787.169 572.73 791.305 581.767 791.922 595.3C792.782 613.163 785.764 630.504 772.723 642.738C767.054 648.109 761.175 652.262 755.8 658.172C779.78 656.431 804.893 655.403 829.132 653.781C830.254 648.936 830.891 645.607 830.897 640.597C830.91 631.588 826.733 621.065 832.977 613.291C838.972 605.827 844.678 611.329 852.348 610.503L852.902 609.606C852.025 607.474 846.261 602.989 844.32 600.899C834.487 590.309 842.385 573.912 847.45 562.821C848.957 559.52 852.613 552.459 856.687 552.697C858.608 554.809 857.851 557.783 859.568 561.071C864.743 570.989 871.345 579.357 870.942 591.179C870.637 600.135 864.675 601.323 859.08 606.546C856.802 608.674 857.283 610.635 857.253 613.961C862.852 615.42 869.601 616.598 873.789 620.946C880.286 627.692 874.648 635.89 874.818 643.587C874.857 645.347 875.495 647.37 876.905 648.512C880.418 651.359 962.473 644.674 972.465 643.474C972.561 645.621 972.984 648.614 973.239 650.809C965.952 652.043 950.899 652.72 942.917 653.32C921.253 654.967 899.573 656.402 877.881 657.625L873.828 664.099C873.614 672.202 873.843 681.14 873.884 689.303C884.143 690.261 907.232 691.597 912.746 701.823C915.943 707.752 901.747 712.764 898.837 714.965C894.348 718.36 892.541 724.115 886.282 725.899C869.947 730.641 851.787 730.287 835.14 728.586C820.911 727.133 817.418 724.291 807.706 714.607C804.591 711.5 796.257 711.355 794.614 705.03C792.116 695.419 808.352 693.24 814.596 691.731C820.439 690.362 827.548 689.67 833.533 689.269C833.477 682.11 834.004 674.364 834.363 667.168C832.718 665.035 830.896 663.308 828.992 661.409C815.089 660.805 800.993 662.912 787.123 663.865C773.073 664.831 752.266 663.658 739.523 668.205C723.002 674.1 680.275 709.559 669.742 710.604C658.513 711.718 626.805 696.449 614.731 691.881C608.186 689.405 601.423 687.536 594.888 685.042C588.632 682.656 582.201 679.285 575.644 677.966C567.299 676.288 556.368 677.962 547.817 678.363C519.978 679.667 492.229 682.328 464.368 683.335C467.619 688.031 470.753 693.518 472.86 698.852C482.357 722.898 470.454 755.412 445.331 764.378C418.276 773.798 387.765 762.459 377.869 734.473C371.651 716.89 374.817 705.042 382.285 688.906C370.331 689.889 355.753 690.042 343.396 690.782L226.638 697.746C226.401 695.313 226.254 692.754 226.076 690.305C230.83 689.865 235.64 689.598 240.412 689.428C267.337 688.472 294.358 685.724 321.269 684.956C320.694 681.096 320.584 676.884 320.487 672.929C318.749 601.732 343.106 525.1 389.329 470.633C408.84 447.642 431.64 428.267 451.1 405.274C464.16 389.843 474.018 374.493 484.062 357.272C460.043 356.18 415.619 354.165 394.288 341.559C392.227 340.341 389.938 337.088 389.785 334.615C389.657 332.545 390.684 329.662 392.116 328.29C414.459 306.874 480.667 288.208 509.969 285.133C513.105 278.217 516.763 271.133 518.572 263.739C521.308 252.558 527.472 190.782 525.173 182.119C522.764 173.039 513.717 161.554 508.768 153.365C498.474 136.33 458.123 71.0927 460.746 53.9632C461.203 50.9764 462.675 49.4194 465.005 47.6621ZM492.965 357.601C473.728 395.837 445.578 424.916 415.55 454.278C373.607 495.291 348.462 544.341 335.615 601.426C331.052 621.7 325.721 663.615 329.147 684.504C343.21 682.96 357.656 682.75 371.773 681.804C376.352 681.498 384.658 681.502 388.719 680.808C395.66 675.656 399.691 672.323 407.998 669.364L408.298 654.707C395.307 646.304 397.803 638.462 410.705 632.924C409.701 628.905 407.562 622.137 408.71 618.336C413.51 612.719 436.255 613.092 442.317 617.629C444.214 620.522 443.642 623.647 442.98 626.912C442.539 628.996 442.065 631.072 441.557 633.14C453.003 637.861 455.809 647.088 444.622 654.652L443.827 655.239C443.384 659.243 443.632 663.854 443.726 667.927C478.05 677.013 510.552 671.412 541.037 653.274C556.786 643.904 580.525 628.252 586.622 609.739C590.82 596.996 579.018 585.788 566.944 584.036C539.979 580.122 511.016 599.392 485.284 583.239C481.142 580.652 474.516 576.772 474.299 571.419L475.01 570.064C478.52 569.44 488.342 578.13 492.209 579.753C508.616 586.639 527.567 581.309 544.077 577.483C544.977 570.218 550.356 515.24 553.896 512.736C556.198 511.107 560.982 512.902 563.494 513.475C568.856 510.49 573.708 507.831 579.235 505.167C621.169 510.938 656.159 518.144 686.542 549.967C698.402 535.39 700.689 532.794 715.628 520.86C710.276 488.824 720.463 456.318 725.563 424.863C729.126 402.884 730.969 383.409 728.788 361.207C728.538 358.671 728.341 350.323 727 348.617C726.07 348.679 725.179 348.688 724.277 348.892C647.501 357.599 570.179 360.51 492.965 357.601ZM510.683 301.897C571.08 318.686 619.677 315.237 679.826 303.804C679.371 304.351 679.094 304.564 678.371 304.763C624.089 319.677 555.067 326.794 502.786 302.901C504.509 299.662 506.297 295.588 507.887 292.217C490.054 293.8 402.235 318.19 398.345 333.307C399.646 341.065 418.291 343.373 425.149 344.435C458.306 349.569 496.254 350.78 529.241 351.314C603.38 352.191 677.497 348.23 751.121 339.455C765.5 337.781 830.76 330.367 838.046 321.164C838.8 314.933 822.437 309.67 817.317 307.834C784.794 296.466 751.102 288.773 716.869 284.9C718.021 288.38 719.058 292.103 720.105 295.633C717.611 293.918 713.524 291.16 712.197 288.507C706.628 277.368 702.355 265.45 696.853 254.174C688.322 236.693 678.551 220.32 668.478 203.746C659.252 188.659 649.793 173.716 640.105 158.922C632.365 147.043 623.518 131.048 610.69 124.53C567.51 102.588 524.897 79.2678 481.164 58.4552C476.21 56.0975 471.58 54.5746 466.279 53.2804C468.087 61.5161 471.097 69.4728 474.79 77.0571C489.172 106.593 506.461 135.177 522.915 163.617C524.93 167.099 532.719 181.126 535.102 183.276L533.248 184.922C532.683 186.582 532.044 204.538 531.743 208.259L529.184 237.218C528.584 244.421 527.868 256.143 526.224 262.856C523.028 275.911 516.471 289.783 510.683 301.897ZM550.531 577.1C568.163 575.464 586.402 578.385 593.017 597.196C602.469 624.076 561.945 648.413 543.717 660.346C569.865 668.889 594.314 678.293 620.106 687.318C628.076 690.001 640.86 694.173 648.194 697.751C650.794 680.583 652.951 663.477 655.055 646.245C658.586 617.331 664.551 588.271 667.478 559.312C632.156 546.209 592.226 532.805 557.695 518.766C556.532 536.563 553.358 559.461 550.531 577.1ZM413.674 672.709C398.833 680.482 388.227 685.702 382.731 703.348C379.081 715.077 380.329 727.784 386.191 738.579C397.252 759.163 416.711 763.397 438.225 760.227C450.735 756.048 459.399 749.643 465.45 737.592C470.992 726.453 471.9 713.572 467.977 701.765C462.442 685.342 451.853 679.741 437.655 672.535L437.354 655.248C428.46 656.286 422.659 656.98 413.645 654.793C413.743 660.693 413.943 666.838 413.674 672.709ZM710.207 557.486C705.98 578.519 703.419 598.657 700.25 619.826C696.709 644.246 692.461 668.557 687.512 692.731C703.233 682.009 722.03 671.081 738.354 660.785C743.667 657.274 749.245 653.725 754.203 649.76C755.574 643.303 756.533 636.512 758.001 630.208C748.964 622.466 743.914 617.633 742.932 605.013C742.804 603.263 742.751 601.507 742.774 599.752C732.407 605.023 721.933 610.081 711.359 614.922C712.079 602.079 714.157 589.892 715.242 577.251C725.47 572.481 735.585 567.473 745.579 562.229C752.619 558.612 761.613 553.716 768.934 551.124C768.278 556.043 766.242 567.041 767.783 571.106L768.545 571.01C771.923 565.815 780.023 523.559 780.492 516.87C757.51 529.31 732.968 544.262 710.207 557.486ZM853.996 638.916C854.896 636.027 855.524 633.686 857.851 631.549L858.47 631.85C871.569 638.3 861.702 655.208 868.713 659.929C874.978 658.089 870.207 646.049 869.975 642.139C869.534 634.725 874.049 625.95 864.847 621.93C862.477 620.905 857.633 618.813 855.225 619.587L853.489 621.021C851.248 620.207 849.946 617.639 848.564 615.529C845.758 615.122 843.217 614.737 840.383 614.544C830.833 618.261 836.505 633.542 836.746 640.79C836.934 646.415 830.379 659.126 838.537 661.602C844.812 656.882 838.401 637.117 845.301 631.778C849.755 631.582 851.82 635.528 853.996 638.916ZM874.363 705.749C881.556 704.888 889.814 703.664 896.939 704.109C878.367 712.737 836.532 713.691 816.762 706.442C813.728 705.33 811.455 703.899 808.704 702.283C816.197 703.523 824.96 705.187 832.417 705.93L833.061 695.381C831.881 695.426 827.563 695.524 826.634 695.694C816.538 696.996 807.739 697.673 798.888 703.148C819.907 716.072 867.674 715.802 891.476 710.369C895.465 709.459 904.109 706.987 906.508 703.354C904.795 699.323 890.487 697.145 886.046 696.406C881.995 695.92 877.933 695.332 873.857 695.332C874.014 698.724 874.11 702.388 874.363 705.749ZM853.654 561.881C845.626 577.037 838.805 586.412 849.158 602.69C848.145 596.54 848.167 583.376 854.363 579.959C855.362 580.276 855.562 580.265 856.407 580.865C862.13 589.567 862.235 592.85 860.95 603.22C865.206 596.112 867.109 591.819 865.494 583.146C864.774 579.278 856.053 564.434 853.654 561.881ZM854.537 583.707C851.271 591.313 848.445 597.61 855.544 604.418C857.248 601.042 857.913 599.635 859.023 596.053C858.129 592.049 857.206 586.823 854.537 583.707ZM568.472 515.574C583.214 520.887 596.369 526.468 610.831 531.944L677.668 556.493C680.031 557.419 683.619 558.693 686.049 557.576C685.777 554.469 678.871 549.331 675.869 546.699C650.325 524.294 615.907 513.527 582.472 511.422C582.326 511.441 582.179 511.46 582.033 511.48C577.229 512.762 573.192 514.004 568.472 515.574ZM681.516 696.847C686.252 665.408 692.955 633.753 697.532 602.21C699.263 590.282 703.295 573.535 704.012 562.041C690.674 566.744 685.665 566.659 672.217 561.669C671.445 580.421 667.838 600.36 665.196 619.073L653.872 700.925C660.748 703.325 668.146 705.862 675.262 702.348C677.791 701.092 679.947 699.195 681.516 696.847ZM816.686 716.705C832.574 726.418 869.011 726.566 886.123 719.43L887.836 718.045C885.9 716.363 875.305 718.702 872.218 718.867C862.762 719.374 853.424 719.599 843.962 719.113C834.586 719.114 825.126 717.017 816.686 716.705ZM777.01 570.802C776.543 572.749 776.543 574.35 774.69 575.241C763.706 580.524 754.48 585.188 750.672 597.9C748.528 605.055 749.146 607.762 752.471 614.961C755.255 620.988 765.425 627.41 765.648 633.063C765.658 633.333 764.904 635.002 764.716 635.398C763.656 637.915 762.718 640.078 761.902 642.691C782.386 630.406 792.243 595.403 779.718 574.272C778.901 572.894 778.239 571.85 777.01 570.802ZM536.341 664.299C529.804 667.57 523.091 670.474 516.232 672.999C522.833 672.27 528.843 671.995 535.488 671.698C542.09 671.471 549.039 671.117 555.613 671.03C549.179 668.643 542.624 666.634 536.341 664.299ZM687.948 558.054C692.174 557.946 694.681 558.009 698.593 556.212C723.661 542.951 748.146 526.597 773.403 513.512C769.079 510.183 765.365 506.692 759.66 506.683C735.255 510.98 705.615 532.269 691.399 552.496C690.153 554.288 689.001 556.143 687.948 558.054ZM716.186 607.396C722.897 604.067 740.632 595.922 745.255 591.169C753.137 583.063 750.485 581.215 761.59 574.314C761.882 571.567 763.424 560.328 763.199 558.401C762.022 559.016 759.052 560.553 758.152 561.364C756.37 562.968 756.47 567.21 754.114 568.14C751.629 569.121 747.223 568.657 745.077 569.506C736.879 572.75 726.724 577.123 719.033 581.28C718.737 589.912 717.442 598.849 716.186 607.396ZM440.398 638.052C439.635 640.584 439.389 641.894 436.788 643.128C430.412 646.154 418.792 645.278 412.821 641.823C412.301 640.746 411.951 639.96 411.274 638.954C405.753 638.795 403.33 644.735 408.327 648.857C416.771 651.391 440.46 654.218 446.129 645.779C446.629 641.446 443.775 640.155 440.398 638.052ZM846.521 635.013C846.356 643.01 847.323 652.493 846.954 659.758C844.669 663.011 843.28 664.391 840.451 667.246C839.789 673.789 837.444 700.338 838.982 705.298C840.033 705.926 839.968 705.927 841.163 706.15C850.816 706.231 859.416 706.211 869.069 705.808C868.433 692.845 867.684 677.623 867.763 664.745C866.219 663.086 864.379 661.199 862.93 659.501C863.04 653.156 864.92 637.804 858.409 634.641C857.701 638.459 857.712 642.24 853.032 642.181C849.508 640.564 848.449 638.266 846.521 635.013Z"/><path fill="#BB5035" transform="scale(0.473558 0.473558)" d="M624.082 378.459C624.976 378.523 626.387 378.628 627.273 378.822C630.878 379.644 633.988 381.911 635.873 385.094C644.461 399.54 633.537 423.538 619.505 431.669C602.848 431.704 603.355 411.707 606.834 400.343C609.868 390.43 614.992 383.355 624.082 378.459Z"/><path fill="#BB5035" transform="scale(0.473558 0.473558)" d="M693.063 388.284C709.674 390.469 708.833 410.286 705.202 422.627C702.657 431.277 697.925 437.019 689.981 441.112C667.872 439.942 671.901 397.214 693.063 388.284Z"/><path fill="#BB5035" transform="scale(0.473558 0.473558)" d="M459.513 702.094C461.752 702.858 464.15 703.699 464.962 706.143C467.562 713.963 466.065 726.136 463.065 733.331C459.132 742.985 451.444 750.625 441.767 754.497C431.073 758.643 419.171 758.374 408.675 753.75C399.123 749.48 391.684 741.553 388.027 731.748C385.1 723.932 380.884 705.269 392.182 702.159C401.278 699.655 416.082 702.742 425.254 704.791C424.137 705.231 423.725 705.271 422.904 706.14C410.695 704.373 400.628 704.683 388.47 706.208C389.878 706.812 391.298 707.388 392.729 707.936C403.658 712.09 455.294 719.438 459.967 706.448L459.344 705.255C459.298 704.23 459.432 703.13 459.513 702.094ZM456.19 738.936C462.84 727.549 462.926 723.096 462.864 710.089C443.721 722.286 409.065 717.582 388.739 709.9C388.645 723.209 389.275 733.369 399.466 743.549C406.383 750.549 415.812 754.489 425.652 754.492C437.963 754.382 448.48 748.239 456.19 738.936Z"/><path fill="#BB5035" transform="scale(0.473558 0.473558)" d="M403.44 723.193C404.993 722.547 406.776 722.805 408.082 723.865C409.388 724.925 410.008 726.617 409.695 728.27C409.382 729.924 408.188 731.272 406.584 731.782C404.249 732.524 401.744 731.295 400.901 728.993C400.059 726.692 401.178 724.135 403.44 723.193Z"/><path fill="#BB5035" transform="scale(0.473558 0.473558)" d="M446.612 725.125C447.635 724.344 449.003 724.186 450.178 724.713C451.352 725.24 452.144 726.367 452.242 727.65C452.34 728.933 451.728 730.168 450.647 730.866C449.063 731.89 446.954 731.48 445.869 729.937C444.785 728.394 445.113 726.269 446.612 725.125Z"/><path fill="#CF6C4D" transform="scale(0.473558 0.473558)" d="M432.185 736.691C433.187 735.955 434.511 735.824 435.637 736.352C436.764 736.879 437.512 737.98 437.589 739.221C437.665 740.463 437.058 741.647 436.005 742.309C434.456 743.282 432.415 742.855 431.387 741.342C430.358 739.83 430.711 737.774 432.185 736.691Z"/><path fill="#BB5035" transform="scale(0.473558 0.473558)" d="M431.458 706.042C437.952 706.545 446.233 700.699 459.513 702.094C459.432 703.13 459.298 704.23 459.344 705.255C456.338 705.139 452.831 704.936 449.871 705.357C444.175 706.166 436.405 709.63 430.856 708.837L431.458 706.042Z"/><path fill="#CF6C4D" transform="scale(0.473558 0.473558)" d="M425.254 704.791L431.458 706.042L430.856 708.837C428.342 707.895 425.476 707.002 422.904 706.14C423.725 705.271 424.137 705.231 425.254 704.791Z"/><path fill="#CF6C4D" fill-opacity="0.98039216" transform="scale(0.473558 0.473558)" d="M603.396 518.033C623.125 521.346 654 533.067 668.6 547.749L668.437 548.193C644.204 533.181 631.38 526.002 602.714 519.286L603.396 518.033Z"/><path fill="#CF6C4D" transform="scale(0.473558 0.473558)" d="M592.984 521.893C603.094 521.959 637.174 535.051 645.929 541.873C641.343 540.794 594.395 523.077 592.984 521.893Z"/><path fill="#B38989" fill-opacity="0.89411765" transform="scale(0.473558 0.473558)" d="M602.714 519.286C600.16 518.708 588.55 516.105 587.003 514.753C592.863 515.716 597.613 516.676 603.396 518.033L602.714 519.286Z"/><path fill="#CF6C4D" fill-opacity="0.98039216" transform="scale(0.473558 0.473558)" d="M758.493 510.189L759.521 510.235C758.94 510.976 748.315 515.398 746.197 516.45C741.625 518.747 737.15 521.233 732.784 523.901C721.122 531.118 711.956 538.982 701.771 547.94L701.354 548.281L701.125 547.741C713.988 529.956 737.721 516.325 758.493 510.189Z"/><path fill="#CF6C4D" fill-opacity="0.98823529" transform="scale(0.473558 0.473558)" d="M765.614 513.263L765.929 513.352L766.001 513.917C750.865 522.546 737.857 529.932 723.037 539.275L722.708 539.294L722.373 538.801C731.52 529.15 752.86 516.783 765.614 513.263Z"/><path fill="#CF6C4D" transform="scale(0.473558 0.473558)" d="M414.06 624.601C424.219 626.033 427.179 626.066 437.457 625.319C436.742 630.282 436.425 634.118 436.101 639.11C434.331 641.847 420 640.537 416.695 640.413L414.06 624.601Z"/><path fill="#CF6C4D" transform="scale(0.473558 0.473558)" d="M422.655 617.619C428.458 616.972 434.542 618.547 440.018 620.268C438.188 620.973 434.928 621.828 432.931 622.41C428.421 623.11 420.685 622.54 416.66 620.375L416.415 619.424C418.309 617.916 420.189 617.951 422.655 617.619Z"/><path fill="#CF6C4D" fill-opacity="0.98431373" transform="scale(0.473558 0.473558)" d="M535.102 183.276C541.616 187.317 546.137 191.128 551.955 196.145C543.442 192.293 538.009 187.16 533.248 184.922L535.102 183.276Z"/></svg>